<svg width="35" height="35" fill="none" xmlns="http://www.w3.org/2000/svg"><path d="M4.468 13.404h4.468v2.234H4.468v-2.234zm8.192 0h4.468v2.234H12.66v-2.234zm8.19 0h3.724v2.234h-3.723v-2.234zM4.468 18.617h4.468v2.234H4.468v-2.234zm8.192 0h4.468v2.234H12.66v-2.234zm-8.192 5.958h4.468v2.233H4.468v-2.233zm8.192 0h4.468v2.233H12.66v-2.233z" fill="#F76747"/><path d="M29.451 20.105V2.425h-4.797V0h-2.051v2.424h-3.884V0h-2.051v2.424h-3.884V0h-2.051v2.424H6.848V0h-2.05v2.424H0v29.158h21.05A7.605 7.605 0 0027.398 35C31.59 35 35 31.596 35 27.412c0-3.474-2.351-6.41-5.549-7.307zM4.798 4.475v2.55h2.05v-2.55h3.885v2.55h2.05v-2.55h3.885v2.55h2.05v-2.55h3.885v2.55h2.05v-2.55h2.748v4.587H2.05V4.475h2.747zM2.05 29.531V11.113H27.4v8.711h-.003c-4.191 0-7.601 3.404-7.601 7.588 0 .735.105 1.447.302 2.12H2.05zm25.348 3.418c-3.061 0-5.551-2.484-5.551-5.537s2.49-5.537 5.55-5.537c3.061 0 5.551 2.484 5.551 5.537s-2.49 5.537-5.55 5.537z" fill="#F76747"/><path d="M28.132 23.83h-2.069v4.468h4.469V26.23h-2.4v-2.4z" fill="#F76747"/></svg>