<svg width="34" height="34" fill="none" xmlns="http://www.w3.org/2000/svg"><path d="M34 5.977V0H0v5.977h1.328v17.597H0v1.992h16.004v2.628a2.993 2.993 0 00-1.992 2.818A2.992 2.992 0 0017 34a2.992 2.992 0 002.988-2.988 2.993 2.993 0 00-1.992-2.818v-2.628H34v-1.992h-1.328V5.977H34zm-17 26.03a.997.997 0 010-1.991.997.997 0 010 1.992zM1.992 1.993h30.016v1.992H1.992V1.992zM30.68 23.574H3.32V5.977h27.36v17.597z" fill="#F76747"/><path d="M7.883 20.286l5.672-5.672 5.014 5.014 7.255-7.254v1.828h1.992V8.973h-5.221v1.992h1.82l-5.846 5.846-5.014-5.014-7.08 7.08 1.408 1.409zM5.676 8.31h4.482v1.99H5.676V8.31zm18.218 10.991h4.482v1.993h-4.482V19.3z" fill="#F76747"/></svg>