<svg width="27" height="32" fill="none" xmlns="http://www.w3.org/2000/svg"><path d="M4.518 3.831h10.298V1.976H2.633v10.207h1.885V3.83zM23.15 28.118H12.84v1.845h12.183V19.756H23.15v8.362zm1.582-20.314a4.377 4.377 0 001.626-3.398c0-2.43-2.002-4.406-4.462-4.406s-4.462 1.976-4.462 4.406c0 1.366.633 2.59 1.625 3.398a5.082 5.082 0 00-2.267 4.227v5.75h10.207v-5.75c0-1.76-.9-3.313-2.267-4.227zm-5.426-3.398c0-1.4 1.162-2.54 2.59-2.54 1.427 0 2.589 1.14 2.589 2.54 0 1.4-1.162 2.539-2.59 2.539-1.427 0-2.589-1.14-2.589-2.54zm5.82 11.508h-6.461V12.03a3.23 3.23 0 013.23-3.22 3.23 3.23 0 013.232 3.22v3.883zM7.94 21.963a4.377 4.377 0 001.626-3.4c0-2.428-2.002-4.405-4.462-4.405S.642 16.135.642 18.564c0 1.367.633 2.59 1.626 3.399A5.082 5.082 0 000 26.19v5.748h10.207V26.19a5.08 5.08 0 00-2.267-4.227zm-5.426-3.4c0-1.4 1.162-2.538 2.59-2.538 1.427 0 2.589 1.139 2.589 2.539 0 1.4-1.162 2.539-2.59 2.539-1.427 0-2.589-1.14-2.589-2.54zm5.82 11.51H1.873V26.19a3.23 3.23 0 013.23-3.22 3.23 3.23 0 013.232 3.22v3.882z" fill="#F76747"/></svg>