<svg width="39" height="39" fill="none" xmlns="http://www.w3.org/2000/svg"><path d="M19.501 32.7h-.009a13.113 13.113 0 01-9.331-3.872A13.113 13.113 0 016.3 19.49C6.306 12.217 12.227 6.3 19.5 6.3h.008c7.279.004 13.197 5.93 13.192 13.208-.005 7.274-5.926 13.192-13.2 13.192zm.007-24.116c-6.022 0-10.92 4.894-10.923 10.909a10.844 10.844 0 003.192 7.72 10.85 10.85 0 007.717 3.203h.007c6.015 0 10.912-4.894 10.916-10.91.004-6.018-4.89-10.918-10.91-10.922z" fill="#F76747"/><path d="M19.487 39l-4.391-2.772-5.357.153-2.417-4.596-4.716-2.546.205-5.189L0 19.487l2.772-4.391-.153-5.357 4.596-2.417L9.76 2.606l5.189.205L19.513 0l4.391 2.772 5.357-.153 2.417 4.596 4.716 2.546-.205 5.189L39 19.513l-2.77 4.391.152 5.357-4.596 2.417-2.546 4.716-5.189-.205L19.487 39zm-3.76-5.075l3.775 2.383 3.943-2.429 4.46.176 2.2-4.074 3.952-2.078-.132-4.63 2.383-3.775-2.429-3.943.176-4.46-4.074-2.2-2.078-3.952-4.63.132-3.775-2.383-3.943 2.429-4.46-.176-2.2 4.074-3.952 2.079.132 4.628-2.383 3.776 2.429 3.943-.176 4.46 4.074 2.2 2.078 3.952 4.63-.132z" fill="#F76747"/><path d="M14.104 24.85l8.861-11.815 1.828 1.37-8.861 11.815-1.828-1.37zm1.209-6.4a3.03 3.03 0 01-3.026-3.026 3.03 3.03 0 013.026-3.026 3.03 3.03 0 013.026 3.026 3.03 3.03 0 01-3.026 3.026zm0-3.768a.743.743 0 10.002 1.486.743.743 0 00-.002-1.486zm8.373 11.954a3.03 3.03 0 01-3.026-3.026 3.03 3.03 0 013.026-3.026 3.03 3.03 0 013.026 3.026 3.03 3.03 0 01-3.026 3.026zm0-3.767a.742.742 0 10.002 1.485.742.742 0 00-.002-1.485z" fill="#F76747"/></svg>