<svg width="32" height="32" fill="none" xmlns="http://www.w3.org/2000/svg"><path d="M32 11.668l-5.688-2.813V0H5.688v8.855L0 11.668V32h32V11.668zm-1.875 1.164v.823l-3.813 2.848v-5.556l3.813 1.885zM24.437 1.875v16.028L16 24.205l-8.438-6.302V1.875h16.875zm-18.75 9.072v5.556l-3.812-2.848v-.823l3.813-1.885zM1.876 30.125v-14.13L16 26.545l14.125-10.55v14.13H1.875z" fill="#F76747"/><path d="M14.039 13.395L16 11.543l1.962 1.852 1.387-1.31-1.962-1.853L19.35 8.38l-1.387-1.31L16 8.922 14.04 7.07l-1.39 1.31 1.962 1.852-1.962 1.853 1.388 1.31z" fill="#F76747"/></svg>