<svg width="35" height="28" fill="none" xmlns="http://www.w3.org/2000/svg"><path d="M34.4.769V27.23H0V.77h34.4zM6.065 25.203h26.321V2.797H6.064v6.117h7.711L16.303 14l-2.528 5.086H6.064v6.117zm-4.048 0h2.032v-6.117H2.016v6.117zm0-8.145H12.53L14.05 14l-1.52-3.059H2.016v6.117zm0-8.144h2.032V2.797H2.016v6.117z" fill="#F76747"/><path d="M11.467 13.118H8.821v1.764h2.646v-1.764zM30.872 5.18h-2.646v1.763h2.646V5.18zm-4.409 0H24.7v1.763h1.764V5.18zm-4.411 0h-1.764v1.763h1.764V5.18zm-3.528 0h-2.646v1.763h2.646V5.18zm-4.411 0h-1.764v1.763h1.764V5.18zm-3.528 0H7.94v1.763h2.646V5.18zm20.287 15.876h-2.646v1.765h2.646v-1.765zm-4.409 0H24.7v1.765h1.764v-1.765zm-4.411 0h-1.764v1.765h1.764v-1.765zm-3.528 0h-2.646v1.765h2.646v-1.765zm-4.411 0h-1.764v1.765h1.764v-1.765zm-3.528 0H7.94v1.765h2.646v-1.765z" fill="#F76747"/></svg>