<svg width="33" height="33" fill="none" xmlns="http://www.w3.org/2000/svg"><path d="M33 31.055h-1.998v-9.853h-5.8v9.853h-1.934V15.368h-5.801v15.687h-1.934V19.257h-5.8v11.798H7.798V11.478h-5.8v19.577H0V33h33v-1.945zm-5.865-7.908h1.933v7.908h-1.933v-7.908zM19.4 17.313h1.934v13.742H19.4V17.313zm-7.734 3.889H13.6v9.853h-1.934v-9.853zm-7.734-7.779h1.933v17.632H3.932V13.423z" fill="#F76747"/><path d="M25.2 17.217H33V9.56h-1.934v4.399L20.365 3.423 12.63 11.08 1.363 0 0 1.358l12.634 12.425 7.735-7.657 9.32 9.177h-4.488v1.914z" fill="#F76747"/></svg>