<svg width="23" height="32" fill="none" xmlns="http://www.w3.org/2000/svg"><path d="M21.588 25.631v3.9H3.771a1.337 1.337 0 01-1.329-1.343v-1.213c0-.742.596-1.344 1.33-1.344h17.816z" fill="#D9ECFD"/><path d="M21.588 27.581v1.95H3.771a1.337 1.337 0 01-1.329-1.343v-.607h19.146z" fill="#C5E2FF"/><path d="M3.875 23.631V.47H2.628C1.432.47.464 1.45.464 2.657v24.32c0-1.854 1.49-3.353 3.323-3.345h.088z" fill="#DB3915"/><path d="M3.875.469h18.661V23.63H3.876V.47z" fill="#FC5A36"/><path d="M3.771 23.631c-1.826 0-3.307 1.498-3.307 3.344v1.212c0 1.847 1.48 3.344 3.307 3.344h18.765v-2H3.771a1.336 1.336 0 01-1.329-1.343v-1.213c0-.742.595-1.344 1.33-1.344h18.764v-2H3.771z" fill="#A42B0F"/><path d="M7.634 3.944h11.152v5.045H7.634V3.944z" fill="#FFC85E"/><path d="M22.536 0H2.628C1.178 0 0 1.191 0 2.655v25.532C0 30.29 1.692 32 3.772 32h18.764c.256 0 .464-.21.464-.469v-2a.466.466 0 00-.464-.468h-.484V26.1h.484c.256 0 .464-.21.464-.469V.47a.466.466 0 00-.464-.47zM.927 2.655a1.71 1.71 0 011.7-1.717h.785v16.47c0 .26.207.47.463.47.257 0 .464-.21.464-.47V.938h17.734v22.225H4.339V19.45a.466.466 0 00-.464-.468.466.466 0 00-.463.468v3.73a3.753 3.753 0 00-2.485 1.295V2.656zm20.198 24.458h-3.319a.466.466 0 00-.463.468c0 .26.207.47.463.47h3.319v1.012H3.772c-.567 0-.92-.463-.866-1.013h12.88c.255 0 .463-.21.463-.469a.466.466 0 00-.464-.468H2.905c-.053-.59.3-1.013.867-1.013h17.353v1.013zm.948-1.95H3.772c-.99 0-1.794.813-1.794 1.812v1.212c0 1 .805 1.813 1.794 1.813h18.3v1.063h-18.3c-1.569 0-2.845-1.29-2.845-2.875v-1.213c0-1.585 1.276-2.875 2.845-2.875h18.3v1.063z" fill="#000"/><path d="M7.634 9.458h11.152c.256 0 .464-.21.464-.469V3.944a.466.466 0 00-.464-.469h-2.804a.466.466 0 00-.463.469c0 .259.207.469.463.469h2.34V8.52H8.099V4.413h5.863c.256 0 .464-.21.464-.469a.466.466 0 00-.464-.469H7.634a.466.466 0 00-.464.469v5.045c0 .259.208.469.464.469zm9.162 5.642H9.624a.466.466 0 00-.464.468c0 .26.208.469.464.469h7.172c.256 0 .464-.21.464-.469a.466.466 0 00-.464-.468zm0 2.238H9.624a.466.466 0 00-.464.469c0 .259.208.469.464.469h7.172c.256 0 .464-.21.464-.47a.466.466 0 00-.464-.468z" fill="#000"/></svg>