<svg width="54" height="50" fill="none" xmlns="http://www.w3.org/2000/svg"><path d="M54 15c0-8.284-6.716-15-15-15H5a5 5 0 00-5 5v30c0 8.284 6.716 15 15 15h24c8.284 0 15-6.716 15-15V15z" fill="#2A2A2F"/><path d="M28.98 24.507l7.72-7.722c.4-.4.4-1.055 0-1.476-.401-.422-1.055-.401-1.477 0l-7.719 7.72-7.72-7.72a1.056 1.056 0 00-1.476 0c-.421.4-.4 1.054 0 1.476l7.72 7.722-7.72 7.72a1.06 1.06 0 000 1.478c.211.21.465.295.739.295.274 0 .527-.105.738-.295l7.719-7.722 7.72 7.722c.21.21.463.295.737.295.275 0 .528-.105.739-.295.4-.401.4-1.055 0-1.477l-7.72-7.721z" fill="#fff"/></svg>