<svg width="21" height="24" fill="none" xmlns="http://www.w3.org/2000/svg"><path d="M2.9 16.612h1.8V17.9h1.467V8.677H4.7v1.29H3.633v-.545c0-3.857 3.083-7.033 6.867-7.033s6.867 3.176 6.867 7.033v.544H16.3V8.677h-1.467v9.224H16.3v-1.29h1.067v1.834c0 1.016-.812 1.877-1.8 1.877h-3.214a1.997 1.997 0 00-1.853-1.29c-1.105 0-2 .915-2 2.034 0 1.12.895 2.034 2 2.034.845 0 1.56-.538 1.853-1.29h3.214c1.804 0 3.266-1.536 3.266-3.365v-1.983a2.029 2.029 0 001.267-1.884V12a2.03 2.03 0 00-1.267-1.884v-.694C18.833 4.749 15.097.9 10.5.9 5.903.9 2.167 4.749 2.167 9.422v.694A2.029 2.029 0 00.9 12v2.578c0 1.12.895 2.034 2 2.034z" fill="#fff" stroke="#fff" stroke-width=".2"/></svg>