<svg width="50" height="46" fill="none" xmlns="http://www.w3.org/2000/svg"><path d="M49.5 5A4.5 4.5 0 0045 .5H15C6.992.5.5 6.992.5 15v16c0 8.008 6.492 14.5 14.5 14.5h20c8.008 0 14.5-6.492 14.5-14.5V5z" stroke="#959595"/><path d="M21.413 25.301a.56.56 0 00.112-1.11c-2.043-.416-4.208-2.93-4.4-6.825h2.477a.561.561 0 000-1.122h-3.051a.56.56 0 00-.561.56c0 4.862 2.672 7.948 5.31 8.486a.583.583 0 00.113.011zm7.231-.015c.04 0 .082-.004.123-.013 2.6-.584 5.233-3.68 5.233-8.468a.56.56 0 00-.56-.561h-2.993a.561.561 0 000 1.122h2.417c-.19 3.84-2.327 6.36-4.342 6.812a.562.562 0 00.122 1.108zm-4.554.763c.31 0 .56.251.56.561h.749a.561.561 0 011.122 0v2.722c0 .31-.252.561-.561.561h-1.87a.561.561 0 01-.56-.56V26.61c0-.31.25-.561.56-.561z" fill="#333"/><path d="M23.342 28.958h3.366c1.135 0 2.057.923 2.057 2.057v.374c0 .31-.252.561-.561.561h-6.358a.561.561 0 01-.56-.56v-.375c0-1.134.922-2.057 2.056-2.057zM20.35 14h9.35a1.31 1.31 0 011.308 1.309v5.426c-.032 4.829-5.563 6.802-5.8 6.884a.555.555 0 01-.366 0c-.237-.082-5.8-2.056-5.8-6.888V15.31A1.31 1.31 0 0120.35 14z" fill="#333"/></svg>