<svg width="50" height="46" fill="none" xmlns="http://www.w3.org/2000/svg"><path d="M.5 5A4.5 4.5 0 015 .5h30C43.008.5 49.5 6.992 49.5 15v16c0 8.008-6.492 14.5-14.5 14.5H15C6.992 45.5.5 39.008.5 31V5z" stroke="#959595"/><path d="M28.587 25.301a.56.56 0 01-.112-1.11c2.043-.416 4.208-2.93 4.4-6.825h-2.477a.561.561 0 010-1.122h3.051a.56.56 0 01.561.56c0 4.862-2.672 7.948-5.31 8.486a.582.582 0 01-.113.011zm-7.231-.015a.586.586 0 01-.123-.013c-2.6-.584-5.233-3.68-5.233-8.468a.56.56 0 01.56-.561h2.993a.561.561 0 010 1.122h-2.417c.19 3.84 2.327 6.36 4.343 6.812a.562.562 0 01-.123 1.108zm4.554.763a.56.56 0 00-.56.561h-.75a.561.561 0 00-1.122 0v2.722c0 .31.252.561.561.561h1.87a.56.56 0 00.56-.56V26.61a.561.561 0 00-.56-.561z" fill="#333"/><path d="M26.658 28.958h-3.366a2.058 2.058 0 00-2.057 2.057v.374c0 .31.252.561.561.561h6.358a.56.56 0 00.56-.56v-.375a2.059 2.059 0 00-2.056-2.057zM29.65 14H20.3a1.31 1.31 0 00-1.308 1.309v5.426c.032 4.829 5.563 6.802 5.8 6.884a.555.555 0 00.366 0c.237-.082 5.8-2.056 5.8-6.888V15.31A1.31 1.31 0 0029.65 14z" fill="#333"/></svg>