<svg width="25" height="31" fill="none" xmlns="http://www.w3.org/2000/svg"><g clip-path="url(#clip0)"><path d="M21.5 30.145H.5v-27h14l7 7v20z" fill="#F76747"/><path d="M24.5 27.145h-21v-26h14l7 7v19z" fill="#FFB927"/><path d="M17.5 8.145h7l-7-7v7z" fill="#F49E21"/><path d="M7.5 23.145h-1a.5.5 0 110-1h1a.5.5 0 010 1zm14 0h-12a.5.5 0 110-1h12a.5.5 0 010 1zm-14-3h-1a.5.5 0 110-1h1a.5.5 0 010 1zm14 0h-12a.5.5 0 110-1h12a.5.5 0 010 1zm-14-3h-1a.5.5 0 110-1h1a.5.5 0 010 1zm14 0h-12a.5.5 0 110-1h12a.5.5 0 010 1zm-14-3h-1a.5.5 0 110-1h1a.5.5 0 010 1zm14 0h-12a.5.5 0 110-1h12a.5.5 0 010 1zm-14-3h-1a.5.5 0 110-1h1a.5.5 0 010 1zm14 0h-12a.5.5 0 110-1h12a.5.5 0 010 1zm-15-5.5h3v3h-3v-3z" fill="#F76747"/><path d="M6.5 23.145h1a.5.5 0 100-1h-1a.5.5 0 000 1zm15-1h-12a.5.5 0 000 1h12a.5.5 0 100-1zm-15-2h1a.5.5 0 100-1h-1a.5.5 0 000 1zm15-1h-12a.5.5 0 000 1h12a.5.5 0 100-1zm-15-2h1a.5.5 0 100-1h-1a.5.5 0 000 1zm15-1h-12a.5.5 0 000 1h12a.5.5 0 100-1zm-15-2h1a.5.5 0 100-1h-1a.5.5 0 000 1zm15-1h-12a.5.5 0 000 1h12a.5.5 0 100-1zm-15-2h1a.5.5 0 100-1h-1a.5.5 0 000 1zm2.5-.5a.5.5 0 00.5.5h12a.5.5 0 100-1h-12a.5.5 0 00-.5.5z" fill="#000"/><path d="M.5 30.645h21a.5.5 0 00.5-.5v-2.5h2.5a.5.5 0 00.5-.5v-19c0-.011-.006-.021-.006-.032a.474.474 0 00-.026-.128c-.006-.016-.01-.032-.017-.047a.5.5 0 00-.1-.147l-7-7a.5.5 0 00-.146-.1c-.015-.007-.031-.011-.046-.016a.498.498 0 00-.13-.026C17.52.65 17.511.645 17.5.645h-14a.5.5 0 00-.5.5v1.5H.5a.5.5 0 00-.5.5v27a.5.5 0 00.5.5zm22.793-23H18V2.352l5.293 5.293zM4 1.645h13v6.5a.5.5 0 00.5.5H24v18H4v-25zm-3 2h2v23.5a.5.5 0 00.5.5H21v2H1v-26z" fill="#000"/><path d="M6.5 9.145h3a.5.5 0 00.5-.5v-3a.5.5 0 00-.5-.5h-3a.5.5 0 00-.5.5v3a.5.5 0 00.5.5zm.5-3h2v2H7v-2z" fill="#000"/></g><defs><clipPath id="clip0"><path fill="#fff" transform="translate(0 .645)" d="M0 0h25v30H0z"/></clipPath></defs></svg>