<svg width="24" height="28" fill="none" xmlns="http://www.w3.org/2000/svg"><path d="M20.64 27.533H.48v-25.2h13.44l6.72 6.534v18.666z" fill="#F76747"/><path d="M23.52 24.733H3.36V.467H16.8L23.52 7v17.733z" fill="#FFB927"/><path d="M16.8 7h6.72L16.8.467V7z" fill="#F49E21"/><path d="M7.2 21h-.96a.474.474 0 01-.48-.467c0-.257.215-.466.48-.466h.96c.265 0 .48.209.48.466A.474.474 0 017.2 21zm13.44 0H9.12a.474.474 0 01-.48-.467c0-.257.215-.466.48-.466h11.52c.265 0 .48.209.48.466a.474.474 0 01-.48.467zM7.2 18.2h-.96a.474.474 0 01-.48-.467c0-.257.215-.466.48-.466h.96c.265 0 .48.209.48.466a.474.474 0 01-.48.467zm13.44 0H9.12a.474.474 0 01-.48-.467c0-.257.215-.466.48-.466h11.52c.265 0 .48.209.48.466a.474.474 0 01-.48.467zM7.2 15.4h-.96a.474.474 0 01-.48-.467c0-.257.215-.466.48-.466h.96c.265 0 .48.209.48.466a.474.474 0 01-.48.467zm13.44 0H9.12a.474.474 0 01-.48-.467c0-.257.215-.466.48-.466h11.52c.265 0 .48.209.48.466a.474.474 0 01-.48.467zM7.2 12.6h-.96a.474.474 0 01-.48-.467c0-.257.215-.466.48-.466h.96c.265 0 .48.209.48.466a.474.474 0 01-.48.467zm13.44 0H9.12a.474.474 0 01-.48-.467c0-.257.215-.466.48-.466h11.52c.265 0 .48.209.48.466a.474.474 0 01-.48.467zM7.2 9.8h-.96a.473.473 0 01-.48-.467c0-.257.215-.466.48-.466h.96c.265 0 .48.209.48.466a.473.473 0 01-.48.467zm13.44 0H9.12a.473.473 0 01-.48-.467c0-.257.215-.466.48-.466h11.52c.265 0 .48.209.48.466a.473.473 0 01-.48.467zM6.24 4.667h2.88v2.8H6.24v-2.8z" fill="#F76747"/><path d="M6.24 21h.96c.265 0 .48-.209.48-.467a.473.473 0 00-.48-.466h-.96a.473.473 0 00-.48.466c0 .258.215.467.48.467zm14.4-.933H9.12a.473.473 0 00-.48.466c0 .258.215.467.48.467h11.52c.265 0 .48-.209.48-.467a.473.473 0 00-.48-.466zM6.24 18.2h.96c.265 0 .48-.209.48-.467a.473.473 0 00-.48-.466h-.96a.473.473 0 00-.48.466c0 .258.215.467.48.467zm14.4-.933H9.12a.473.473 0 00-.48.466c0 .258.215.467.48.467h11.52c.265 0 .48-.209.48-.467a.473.473 0 00-.48-.466zM6.24 15.4h.96c.265 0 .48-.209.48-.467a.473.473 0 00-.48-.466h-.96a.473.473 0 00-.48.466c0 .258.215.467.48.467zm14.4-.933H9.12a.473.473 0 00-.48.466c0 .258.215.467.48.467h11.52c.265 0 .48-.209.48-.467a.473.473 0 00-.48-.466zM6.24 12.6h.96c.265 0 .48-.209.48-.467a.473.473 0 00-.48-.466h-.96a.473.473 0 00-.48.466c0 .258.215.467.48.467zm14.4-.933H9.12a.473.473 0 00-.48.466c0 .258.215.467.48.467h11.52c.265 0 .48-.209.48-.467a.473.473 0 00-.48-.466zM6.24 9.8h.96c.265 0 .48-.209.48-.467a.473.473 0 00-.48-.466h-.96a.473.473 0 00-.48.466c0 .258.215.467.48.467zm2.4-.467c0 .258.215.467.48.467h11.52c.265 0 .48-.209.48-.467a.473.473 0 00-.48-.466H9.12a.473.473 0 00-.48.466z" fill="#000"/><path d="M.48 28h20.16c.265 0 .48-.209.48-.467V25.2h2.4c.265 0 .48-.209.48-.467V7c0-.01-.005-.02-.006-.03a.432.432 0 00-.025-.12c-.005-.014-.009-.029-.016-.043a.464.464 0 00-.096-.137L17.137.137a.48.48 0 00-.14-.094l-.045-.015a.49.49 0 00-.124-.024C16.82.005 16.81 0 16.8 0H3.36a.473.473 0 00-.48.467v1.4H.48a.473.473 0 00-.48.466v25.2c0 .258.215.467.48.467zM22.361 6.533H17.28v-4.94l5.081 4.94zM3.84.933h12.48V7c0 .258.215.467.48.467h6.24v16.8H3.84V.933zM.96 2.8h1.92v21.933c0 .258.215.467.48.467h16.8v1.867H.96V2.8z" fill="#000"/><path d="M6.24 7.933h2.88c.265 0 .48-.209.48-.466v-2.8a.473.473 0 00-.48-.467H6.24a.473.473 0 00-.48.467v2.8c0 .257.215.466.48.466zm.48-2.8h1.92V7H6.72V5.133z" fill="#000"/></svg>