<svg width="22" height="29" fill="none" xmlns="http://www.w3.org/2000/svg"><path d="M4.453 26.38C3.12 24.866 1.787 23.293.939 21.417a11.234 11.234 0 01-.667-6.474c.424-2.178 1.394-4.235 2.787-5.99-.12 1.513.424 3.086 1.454 4.236-.605-2.904.364-6.05 2.303-8.35C8.754 2.541 11.42 1.03 14.207 0c-1.393 1.452-1.575 3.751-1.03 5.687.546 1.936 1.697 3.63 2.727 5.385 1.03 1.755 1.999 3.57 2.06 5.566.545-1.028 1.15-2.057 1.514-3.206.364-1.15.546-2.36.243-3.51 1.09 1.332 1.696 2.663 1.999 4.357.303 1.694.242 3.448.06 5.143-.242 1.875-.726 3.811-1.756 5.384-1.212 1.876-3.15 3.207-5.271 3.933-3.757.665-7.453.121-10.3-2.36z" fill="#F76747"/><path d="M9.057 28.618c4.968 1.936 9.876-3.933 7.15-8.47 0-.061-.061-.061-.061-.122.242 2.481-.364 4.296-1.515 5.325.606-1.452.182-3.146-.545-4.598-.727-1.392-1.757-2.663-2.545-3.994-.787-1.391-1.393-2.964-1.03-4.537-1.454 1.089-2.484 2.722-2.908 4.477-.424 1.754-.181 3.69.606 5.324-.909-.665-1.575-1.754-1.636-2.904-.97 1.15-1.575 2.662-1.514 4.175 0 2.36 1.878 4.477 3.998 5.324z" fill="#FFB927"/></svg>