<svg width="35" height="41" fill="none" xmlns="http://www.w3.org/2000/svg"><path d="M10.503 32.54c-3.019.83-5.926-.255-4.99 3.319.934 3.573 4.14 5.797 7.159 4.967 3.019-.83 4.708-4.4 3.772-7.973-.935-3.574-2.922-1.143-5.94-.312zm-.586-2.207c5.674-1.56 4.2-3.523 4.826-7.417.586-3.651-4.457-14.847-10.237-13.257-5.78 1.589-4.64 13.836-2.389 16.728 2.495 3.206 2.125 5.507 7.8 3.946z" fill="#FFB927"/><path d="M24.497 23.036c-3.019-.83-5.006-3.262-5.94.312-.936 3.573.753 7.143 3.772 7.973 3.019.83 6.224-1.394 7.16-4.968.934-3.573-1.973-2.488-4.992-3.317zM30.494.153C24.715-1.435 19.672 9.76 20.258 13.411c.626 3.894-.848 5.856 4.826 7.417 5.675 1.56 5.305-.74 7.8-3.946 2.251-2.892 3.39-15.14-2.39-16.729z" fill="#F76747"/></svg>