<svg width="34" height="29" fill="none" xmlns="http://www.w3.org/2000/svg"><path d="M29.092 15.571h-2.63a6.84 6.84 0 01.415 2.351v9.938c0 .344-.06.674-.169.981h4.347A2.948 2.948 0 0034 25.896V20.48a4.914 4.914 0 00-4.908-4.908zM7.123 17.922c0-.825.146-1.617.415-2.351h-2.63A4.914 4.914 0 000 20.479v5.418a2.948 2.948 0 002.945 2.945h4.347a2.932 2.932 0 01-.169-.982v-9.938z" fill="#FFB927"/><path d="M20.006 13.014h-6.011a4.914 4.914 0 00-4.909 4.908v9.938c0 .542.44.981.982.981h13.864c.542 0 .982-.44.982-.981v-9.938a4.914 4.914 0 00-4.908-4.908zM17 0a5.91 5.91 0 00-5.902 5.903A5.906 5.906 0 0017 11.805a5.906 5.906 0 005.902-5.903A5.91 5.91 0 0017 0z" fill="#F76747"/><path d="M6.635 5.502a4.42 4.42 0 00-4.414 4.414 4.42 4.42 0 004.414 4.414 4.39 4.39 0 001.74-.357 4.442 4.442 0 002.156-1.983c.33-.619.518-1.325.518-2.074a4.42 4.42 0 00-4.414-4.414zm20.73 0a4.42 4.42 0 00-4.414 4.414c0 .75.188 1.455.518 2.074a4.441 4.441 0 002.156 1.983 4.39 4.39 0 001.74.357 4.42 4.42 0 004.414-4.414 4.42 4.42 0 00-4.414-4.414z" fill="#FFB927"/></svg>