<svg width="230" height="96" fill="none" xmlns="http://www.w3.org/2000/svg"><path d="M73.829 88.3c-1.86 0-4.16-.18-6.9-.54v-3.57c3.4.52 5.72.78 6.96.78 2.6 0 3.9-.67 3.9-2.01V81.7c0-.64-.19-1.13-.57-1.47-.36-.34-1.02-.51-1.98-.51h-2.28c-4.28 0-6.42-1.7-6.42-5.1v-1.44c0-1.7.71-2.95 2.13-3.75 1.42-.8 3.67-1.2 6.75-1.2 1.6 0 3.63.13 6.09.39v3.48c-3.02-.36-5.1-.54-6.24-.54-1.58 0-2.64.13-3.18.39-.58.28-.87.72-.87 1.32v1.38c0 1.02.86 1.53 2.58 1.53h2.34c2.22 0 3.83.41 4.83 1.23 1 .82 1.5 2.07 1.5 3.75v1.29c0 2.32-.83 3.89-2.49 4.71-.8.42-1.69.71-2.67.87-.96.18-2.12.27-3.48.27zm15.823 0c-1.36 0-2.38-.12-3.06-.36-.66-.26-1.13-.71-1.41-1.35-.26-.66-.39-1.64-.39-2.94 0-1.16.14-2.07.42-2.73.3-.66.77-1.13 1.41-1.41.66-.3 1.56-.45 2.7-.45h4.92v-.99c0-.62-.09-1.08-.27-1.38-.16-.3-.47-.51-.93-.63-.44-.12-1.11-.18-2.01-.18-1.24 0-2.94.12-5.1.36v-2.76c1.58-.2 3.43-.3 5.55-.3 1.86 0 3.29.14 4.29.42 1.02.28 1.75.76 2.19 1.44.44.68.66 1.67.66 2.97V88h-4.29v-1.32c-.34.58-.8.99-1.38 1.23-.58.26-1.68.39-3.3.39zm1.71-2.73c.88 0 1.51-.03 1.89-.09.28-.04.47-.1.57-.18.12-.08.22-.21.3-.39.08-.14.12-.35.12-.63v-2.82h-3c-.68 0-1.16.05-1.44.15-.28.08-.47.26-.57.54-.1.26-.15.73-.15 1.41 0 .66.05 1.12.15 1.38.1.26.29.43.57.51.3.08.82.12 1.56.12zm12.224-9.39h-2.73v-2.7h2.73v-2.19c0-1.18.19-2.1.57-2.76.4-.68 1-1.15 1.8-1.41.82-.28 1.91-.42 3.27-.42.74 0 1.83.08 3.27.24v2.7c-1.28-.16-2.14-.24-2.58-.24-.74 0-1.25.12-1.53.36-.28.22-.42.65-.42 1.29v2.43h3.99v2.7h-3.99V88h-4.38V76.18zm17.81 12.12c-5.14 0-7.71-1.57-7.71-4.71v-5.22c0-1.82.58-3.14 1.74-3.96 1.18-.82 2.99-1.23 5.43-1.23 2.3 0 3.98.4 5.04 1.2 1.08.78 1.62 2.11 1.62 3.99v3.54h-9.42v1.32c0 .84.3 1.44.9 1.8.6.36 1.68.54 3.24.54 1.44 0 3.06-.21 4.86-.63v2.79c-1.78.38-3.68.57-5.7.57zm1.95-8.88v-2.1c0-.48-.2-.84-.6-1.08-.38-.24-1.03-.36-1.95-.36-1.06 0-1.77.12-2.13.36-.38.26-.57.62-.57 1.08v2.1h5.25zm14.778 8.88c-.74 0-1.36-.03-1.86-.09s-1-.18-1.5-.36c-.56-.18-1.02-.43-1.38-.75-.34-.32-.62-.76-.84-1.32-.24-.58-.36-1.25-.36-2.01v-7.59h-2.94v-2.7h2.94v-4.2h4.38v4.2h3.99v2.7h-3.99v6.84c0 .7.06 1.23.18 1.59.12.34.35.59.69.75.34.14.86.21 1.56.21.28 0 .8-.05 1.56-.15v2.73c-.94.1-1.75.15-2.43.15zm9.067-.42l-5.79-14.4h4.77l3.27 10.26 2.97-10.26h4.53l-7.95 20.76h-4.44l2.64-6.36zM166.2 68.53h7.89c1.86 0 3.29.14 4.29.42 1.02.26 1.74.69 2.16 1.29.42.58.63 1.4.63 2.46v2.4c0 .54-.22 1.05-.66 1.53-.42.48-.92.81-1.5.99v.15c.76.08 1.45.41 2.07.99.64.56.96 1.19.96 1.89v3c0 1.58-.63 2.7-1.89 3.36-1.26.66-3.21.99-5.85.99h-8.1V68.53zm7.89 7.92c.74 0 1.29-.06 1.65-.18.36-.12.6-.31.72-.57.14-.28.21-.68.21-1.2v-.96c0-.46-.06-.8-.18-1.02-.12-.24-.37-.41-.75-.51-.36-.1-.94-.15-1.74-.15h-3.12v4.59h3.21zm.12 8.22c1.14 0 1.95-.13 2.43-.39.48-.26.72-.68.72-1.26v-1.56c0-.72-.19-1.23-.57-1.53-.36-.3-1.01-.45-1.95-.45h-3.96v5.19h3.33zm18.143 3.63c-5.14 0-7.71-1.57-7.71-4.71v-5.22c0-1.82.58-3.14 1.74-3.96 1.18-.82 2.99-1.23 5.43-1.23 2.3 0 3.98.4 5.04 1.2 1.08.78 1.62 2.11 1.62 3.99v3.54h-9.42v1.32c0 .84.3 1.44.9 1.8.6.36 1.68.54 3.24.54 1.44 0 3.06-.21 4.86-.63v2.79c-1.78.38-3.68.57-5.7.57zm1.95-8.88v-2.1c0-.48-.2-.84-.6-1.08-.38-.24-1.03-.36-1.95-.36-1.06 0-1.77.12-2.13.36-.38.26-.57.62-.57 1.08v2.1h5.25zM201.941 67h4.38v21h-4.38V67zm15.607 21.3c-.74 0-1.36-.03-1.86-.09s-1-.18-1.5-.36c-.56-.18-1.02-.43-1.38-.75-.34-.32-.62-.76-.84-1.32-.24-.58-.36-1.25-.36-2.01v-7.59h-2.94v-2.7h2.94v-4.2h4.38v4.2h3.99v2.7h-3.99v6.84c0 .7.06 1.23.18 1.59.12.34.35.59.69.75.34.14.86.21 1.56.21.28 0 .8-.05 1.56-.15v2.73c-.94.1-1.75.15-2.43.15z" fill="#373737"/><path d="M0 53.1l18.036 10.464v21.711L0 74.812V53.101z" fill="#EC903A"/><path d="M36.072 53.1L18.036 63.565v21.711l18.036-10.463V53.101z" fill="#F1B856"/><path d="M0 53.1l17.95-10.986 18.122 10.987L17.95 63.648 0 53.101z" fill="#F3A83C"/><path d="M18.797 63.826l18.036 10.463V96L18.797 85.537V63.826z" fill="#EF9E4B"/><path d="M54.868 63.826L36.833 74.289V96l18.035-10.463V63.826z" fill="#F4C561"/><path d="M18.797 63.826l17.95-10.987 18.121 10.987-18.122 10.547-17.95-10.547z" fill="#F4B248"/><path d="M18.797 41.33l18.036 10.463v21.711L18.797 63.041V41.33z" fill="#EC903A"/><path d="M54.868 41.33L36.833 51.793v21.711l18.035-10.463V41.33z" fill="#F4C561"/><path d="M18.797 41.33l17.95-10.987 18.12 10.987-18.121 10.547-17.95-10.547z" fill="#F4B248"/><path d="M18.797 18.572l18.036 10.463v21.712L18.797 40.283v-21.71z" fill="#EF9E4B"/><path d="M54.868 18.572L36.833 29.035v21.712l18.035-10.464v-21.71z" fill="#F4C561"/><path d="M18.797 18.572l17.95-10.986 18.121 10.986L36.746 29.12l-17.95-10.547z" fill="#F4B248"/><path d="M37.596 29.82l18.036 10.463v21.712L37.596 51.53V29.82z" fill="#EC903A"/><path d="M73.667 29.82L55.632 40.283v21.712L73.667 51.53V29.82z" fill="#F1B856"/><path d="M37.596 29.82l17.95-10.986 18.12 10.986-18.121 10.547-17.95-10.547z" fill="#F3A83C"/><path d="M84.28 30.914h7.266V40h-1.358v-8.148h-4.55V40H84.28v-9.086zm12.397 9.226c-.597 0-1.045-.023-1.344-.07a2.974 2.974 0 01-.896-.266 1.312 1.312 0 01-.672-.672c-.14-.317-.21-.742-.21-1.274v-2.352c0-.42.051-.789.154-1.106.103-.317.238-.565.406-.742.14-.159.35-.28.63-.364.29-.093.583-.154.882-.182.336-.019.686-.028 1.05-.028.485 0 .85.014 1.092.042.252.019.518.065.798.14.29.084.513.21.672.378.159.168.294.41.406.728.103.327.154.705.154 1.134v2.352c0 .793-.182 1.372-.546 1.736-.15.15-.364.266-.644.35-.28.084-.57.14-.868.168-.355.019-.71.028-1.064.028zm0-.826c.392 0 .677-.01.854-.028.177-.019.35-.07.518-.154a.64.64 0 00.35-.364c.075-.177.112-.42.112-.728v-2.744c0-.42-.051-.723-.154-.91-.103-.196-.28-.322-.532-.378-.243-.065-.625-.098-1.148-.098-.523 0-.91.033-1.162.098-.243.056-.415.182-.518.378-.103.187-.154.49-.154.91v2.744c0 .308.033.55.098.728.075.168.196.29.364.364.168.084.34.135.518.154.177.019.462.028.854.028zm5.171-6.09h2.03l2.058 5.516h.056l1.918-5.516h1.96V40h-1.162v-5.628h-.07L106.552 40h-1.274l-2.17-5.628h-.07V40h-1.19v-6.776zm13.163 6.916c-.597 0-1.045-.023-1.344-.07a2.975 2.975 0 01-.896-.266 1.312 1.312 0 01-.672-.672c-.14-.317-.21-.742-.21-1.274v-2.352c0-.42.051-.789.154-1.106.103-.317.238-.565.406-.742.14-.159.35-.28.63-.364a4.11 4.11 0 01.882-.182c.336-.019.686-.028 1.05-.028.485 0 .849.014 1.092.042.252.019.518.065.798.14.289.084.513.21.672.378.159.168.294.41.406.728.103.327.154.705.154 1.134v2.352c0 .793-.182 1.372-.546 1.736-.149.15-.364.266-.644.35-.28.084-.569.14-.868.168-.355.019-.709.028-1.064.028zm0-.826c.392 0 .677-.01.854-.028.177-.019.35-.07.518-.154a.638.638 0 00.35-.364c.075-.177.112-.42.112-.728v-2.744c0-.42-.051-.723-.154-.91-.103-.196-.28-.322-.532-.378-.243-.065-.625-.098-1.148-.098-.523 0-.91.033-1.162.098-.243.056-.415.182-.518.378-.103.187-.154.49-.154.91v2.744c0 .308.033.55.098.728.075.168.196.29.364.364.168.084.341.135.518.154.177.019.462.028.854.028zm13.991.686h-8.82v-6.776h1.26v5.852h2.646v-5.852h1.274v5.852h2.646v-5.852h1.26v5.852h.952v2.8h-1.218V40zm2.731-6.776h1.26v2.45h1.736c.578 0 1.036.042 1.372.126.345.084.597.233.756.448.158.205.238.5.238.882v1.4c0 .98-.826 1.47-2.478 1.47h-2.884v-6.776zm2.8 5.964c.27 0 .55-.037.84-.112.326-.084.49-.322.49-.714v-.854c0-.27-.038-.476-.112-.616-.066-.14-.192-.238-.378-.294-.178-.056-.448-.084-.812-.084h-1.582v2.674h1.554zm7.387-5.964h2.968c.607 0 1.092.037 1.456.112.364.065.63.182.798.35.159.159.262.322.308.49.047.168.07.401.07.7v.238c0 .364-.093.635-.28.812-.186.177-.499.313-.938.406v.056c1.083.187 1.624.658 1.624 1.414v.406c0 .457-.093.817-.28 1.078-.177.252-.476.434-.896.546-.42.112-1.008.168-1.764.168h-3.066v-6.776zM145 36.08c.374 0 .654-.028.84-.084.187-.065.313-.163.378-.294.066-.14.098-.35.098-.63v-.084c0-.252-.037-.439-.112-.56-.065-.121-.196-.205-.392-.252-.186-.056-.471-.084-.854-.084h-1.778v1.988H145zm.056 3.01c.439 0 .77-.028.994-.084.224-.056.378-.145.462-.266.084-.13.126-.322.126-.574v-.448a.73.73 0 00-.294-.588c-.205-.15-.611-.224-1.218-.224h-1.946v2.184h1.876zm8.116-5.866h5.726V40h-1.26v-5.852h-3.206V40h-1.26v-6.776zm10.866 6.916c-.597 0-1.045-.023-1.344-.07a2.983 2.983 0 01-.896-.266 1.312 1.312 0 01-.672-.672c-.14-.317-.21-.742-.21-1.274v-2.352c0-.42.052-.789.154-1.106.103-.317.238-.565.406-.742.14-.159.35-.28.63-.364.29-.093.584-.154.882-.182.336-.019.686-.028 1.05-.028.486 0 .85.014 1.092.042.252.019.518.065.798.14.29.084.514.21.672.378.159.168.294.41.406.728.103.327.154.705.154 1.134v2.352c0 .793-.182 1.372-.546 1.736-.149.15-.364.266-.644.35-.28.084-.569.14-.868.168-.354.019-.709.028-1.064.028zm0-.826c.392 0 .677-.01.854-.028a1.5 1.5 0 00.518-.154.638.638 0 00.35-.364c.075-.177.112-.42.112-.728v-2.744c0-.42-.051-.723-.154-.91-.102-.196-.28-.322-.532-.378-.242-.065-.625-.098-1.148-.098-.522 0-.91.033-1.162.098-.242.056-.415.182-.518.378-.102.187-.154.49-.154.91v2.744c0 .308.033.55.098.728.075.168.196.29.364.364.168.084.341.135.518.154.178.019.462.028.854.028zm4.821.7c-.14 0-.275-.014-.406-.042v-1.078c.131.028.262.042.392.042.402 0 .719-.29.952-.868.243-.588.364-1.67.364-3.248v-1.596h4.606V40h-1.26v-5.95h-2.226v.98c0 1.54-.182 2.758-.546 3.654-.364.887-.989 1.33-1.876 1.33zm9.697.084l-2.618-6.874h1.372l1.89 5.53h.028l1.708-5.53h1.274l-3.402 9.688h-1.316l1.064-2.814zm9.407-3.15c-.121.644-.863.966-2.226.966-.868 0-1.479-.154-1.834-.462-.345-.317-.518-.812-.518-1.484v-2.744h1.26v2.66c0 .43.112.723.336.882.224.159.597.238 1.12.238.513 0 .901-.033 1.162-.098.271-.075.453-.191.546-.35.103-.159.154-.383.154-.672v-2.66h1.26V40h-1.26v-3.052zm6.303 3.192c-2.072 0-3.108-.69-3.108-2.072v-2.674c0-.821.234-1.41.7-1.764.476-.364 1.242-.546 2.296-.546.999 0 1.718.173 2.156.518.448.345.672.943.672 1.792v1.498h-4.55v1.022c0 .467.164.803.49 1.008.327.205.831.308 1.512.308.644 0 1.405-.112 2.282-.336v.966c-.858.187-1.675.28-2.45.28zm1.456-4.074v-1.064c0-.41-.126-.69-.378-.84-.242-.159-.662-.238-1.26-.238-.578 0-.998.08-1.26.238-.261.15-.392.43-.392.84v1.064h3.29zm3.181-2.842h1.26v2.814h3.332v-2.814h1.26V40h-1.26v-3.038h-3.332V40h-1.26v-6.776zm14.087 0V40h-1.26v-4.998L208.202 40h-1.26v-6.776h1.26v5.166l3.598-5.166h1.19zm8.23 0V40h-1.26v-4.998L216.432 40h-1.26v-6.776h1.26v5.166l3.598-5.166h1.19zm-130.976 16V56h-1.26v-4.998L85.456 56h-1.26v-6.776h1.26v5.166l3.598-5.166h1.19zm2.266 0h5.726V56h-1.26v-5.852H93.77V56h-1.26v-6.776zm10.866 6.916c-.597 0-1.045-.023-1.344-.07a2.983 2.983 0 01-.896-.266 1.312 1.312 0 01-.672-.672c-.14-.317-.21-.742-.21-1.274v-2.352c0-.42.052-.789.154-1.106.103-.317.238-.565.406-.742.14-.159.35-.28.63-.364.29-.093.584-.154.882-.182.336-.019.686-.028 1.05-.028.486 0 .85.014 1.092.042.252.019.518.065.798.14.29.084.514.21.672.378.159.168.294.41.406.728.103.327.154.705.154 1.134v2.352c0 .793-.182 1.372-.546 1.736-.149.15-.364.266-.644.35-.28.084-.569.14-.868.168-.354.019-.709.028-1.064.028zm0-.826c.392 0 .677-.01.854-.028a1.5 1.5 0 00.518-.154.638.638 0 00.35-.364c.075-.177.112-.42.112-.728v-2.744c0-.42-.051-.723-.154-.91-.102-.196-.28-.322-.532-.378-.242-.065-.625-.098-1.148-.098-.522 0-.91.033-1.162.098-.242.056-.415.182-.518.378-.102.187-.154.49-.154.91v2.744c0 .308.033.55.098.728.075.168.196.29.364.364.168.084.341.135.518.154.178.019.462.028.854.028zm6.795-5.166h-2.38v-.924h6.006v.924h-2.366V56h-1.26v-5.852zm7.998 5.992c-2.072 0-3.108-.69-3.108-2.072v-2.674c0-.821.233-1.41.7-1.764.476-.364 1.241-.546 2.296-.546.998 0 1.717.173 2.156.518.448.345.672.943.672 1.792v1.498h-4.55v1.022c0 .467.163.803.49 1.008.326.205.83.308 1.512.308.644 0 1.404-.112 2.282-.336v.966c-.859.187-1.676.28-2.45.28zm1.456-4.074v-1.064c0-.41-.126-.69-.378-.84-.243-.159-.663-.238-1.26-.238-.579 0-.999.08-1.26.238-.262.15-.392.43-.392.84v1.064h3.29zm7.758.882c-.121.644-.863.966-2.226.966-.868 0-1.479-.154-1.834-.462-.345-.317-.518-.812-.518-1.484v-2.744h1.26v2.66c0 .43.112.723.336.882.224.159.597.238 1.12.238.513 0 .901-.033 1.162-.098.271-.075.453-.191.546-.35.103-.159.154-.383.154-.672v-2.66h1.26V56h-1.26v-3.052zm3.447-3.724h1.26v2.814h3.332v-2.814h1.26V56h-1.26v-3.038h-3.332V56h-1.26v-6.776zm10.909 6.916c-.597 0-1.045-.023-1.344-.07a2.983 2.983 0 01-.896-.266 1.312 1.312 0 01-.672-.672c-.14-.317-.21-.742-.21-1.274v-2.352c0-.42.052-.789.154-1.106.103-.317.238-.565.406-.742.14-.159.35-.28.63-.364.29-.093.584-.154.882-.182.336-.019.686-.028 1.05-.028.486 0 .85.014 1.092.042.252.019.518.065.798.14.29.084.514.21.672.378.159.168.294.41.406.728.103.327.154.705.154 1.134v2.352c0 .793-.182 1.372-.546 1.736-.149.15-.364.266-.644.35-.28.084-.569.14-.868.168-.354.019-.709.028-1.064.028zm0-.826c.392 0 .677-.01.854-.028a1.5 1.5 0 00.518-.154.638.638 0 00.35-.364c.075-.177.112-.42.112-.728v-2.744c0-.42-.051-.723-.154-.91-.102-.196-.28-.322-.532-.378-.242-.065-.625-.098-1.148-.098-.522 0-.91.033-1.162.098-.242.056-.415.182-.518.378-.102.187-.154.49-.154.91v2.744c0 .308.033.55.098.728.075.168.196.29.364.364.168.084.341.135.518.154.178.019.462.028.854.028zm5.171-6.09h4.424v.924h-3.164V56h-1.26v-6.776zm8.665 6.916c-.597 0-1.045-.023-1.344-.07a2.983 2.983 0 01-.896-.266 1.312 1.312 0 01-.672-.672c-.14-.317-.21-.742-.21-1.274v-2.352c0-.42.052-.789.154-1.106.103-.317.238-.565.406-.742.14-.159.35-.28.63-.364.29-.093.584-.154.882-.182.336-.019.686-.028 1.05-.028.486 0 .85.014 1.092.042.252.019.518.065.798.14.29.084.514.21.672.378.159.168.294.41.406.728.103.327.154.705.154 1.134v2.352c0 .793-.182 1.372-.546 1.736-.149.15-.364.266-.644.35-.28.084-.569.14-.868.168-.354.019-.709.028-1.064.028zm0-.826c.392 0 .677-.01.854-.028a1.5 1.5 0 00.518-.154.638.638 0 00.35-.364c.075-.177.112-.42.112-.728v-2.744c0-.42-.051-.723-.154-.91-.102-.196-.28-.322-.532-.378-.242-.065-.625-.098-1.148-.098-.522 0-.91.033-1.162.098-.242.056-.415.182-.518.378-.102.187-.154.49-.154.91v2.744c0 .308.033.55.098.728.075.168.196.29.364.364.168.084.341.135.518.154.178.019.462.028.854.028zm14.753-6.09h1.26v2.926c.14 0 .252-.028.336-.084.093-.065.205-.163.336-.294l2.352-2.548h1.54l-3.08 3.206c.121.028.294.154.518.378.233.224.574.588 1.022 1.092l1.89 2.1h-1.554l-1.848-2.1a4.101 4.101 0 00-.742-.686c-.187-.121-.317-.191-.392-.21a.634.634 0 00-.224-.042h-.154V56h-1.26v-6.776zm7.041 0h1.26v.728c.103-.579.873-.868 2.31-.868.859 0 1.508.182 1.946.546.439.355.658.812.658 1.372v2.786c0 .401-.06.751-.182 1.05-.112.299-.261.532-.448.7-.168.159-.401.285-.7.378a4.1 4.1 0 01-.868.182 9.12 9.12 0 01-.952.042 4.36 4.36 0 01-1.134-.14c-.336-.103-.546-.247-.63-.434v3.206h-1.26v-9.548zm3.052 6.062c.486 0 .854-.033 1.106-.098.262-.075.448-.205.56-.392.112-.187.168-.471.168-.854V51.45c0-.42-.056-.733-.168-.938-.112-.205-.298-.34-.56-.406-.252-.075-.625-.112-1.12-.112-.494 0-.872.037-1.134.112a.824.824 0 00-.546.406c-.112.205-.168.518-.168.938v2.492c0 .373.056.658.168.854.122.187.313.317.574.392.262.065.635.098 1.12.098zm7.912.854c-2.072 0-3.108-.69-3.108-2.072v-2.674c0-.821.233-1.41.7-1.764.476-.364 1.241-.546 2.296-.546.999 0 1.717.173 2.156.518.448.345.672.943.672 1.792v1.498h-4.55v1.022c0 .467.163.803.49 1.008.327.205.831.308 1.512.308.644 0 1.405-.112 2.282-.336v.966c-.859.187-1.675.28-2.45.28zm1.456-4.074v-1.064c0-.41-.126-.69-.378-.84-.243-.159-.663-.238-1.26-.238-.579 0-.999.08-1.26.238-.261.15-.392.43-.392.84v1.064h3.29zm9.606 3.108v2.702h-1.078V56h-5.222v1.876h-1.078v-2.702h.434c.205 0 .406-.154.602-.462.196-.317.359-.821.49-1.512.131-.7.196-1.587.196-2.66v-1.316h4.704v5.95h.952zm-2.212 0V50.05h-2.338v.98c0 .97-.065 1.806-.196 2.506-.121.69-.35 1.237-.686 1.638h3.22zm9.777-5.95V56h-1.26v-4.998L202.172 56h-1.26v-6.776h1.26v5.166l3.598-5.166h1.19zm3.891.924h-2.38v-.924h6.006v.924h-2.366V56h-1.26v-5.852zm7.228 5.992c-.644 0-1.144-.06-1.498-.182a1.294 1.294 0 01-.756-.644c-.15-.308-.224-.751-.224-1.33 0-.513.07-.91.21-1.19.149-.29.396-.495.742-.616.354-.121.854-.182 1.498-.182h2.03v-1.078c0-.252-.052-.443-.154-.574-.094-.14-.257-.238-.49-.294-.224-.056-.556-.084-.994-.084-.7 0-1.475.056-2.324.168v-.924a27.912 27.912 0 012.506-.126c.784 0 1.362.06 1.736.182.373.112.63.313.77.602.14.29.21.737.21 1.344V56h-1.218v-.644c-.103.523-.784.784-2.044.784zm.21-.826a5.9 5.9 0 001.162-.098c.42-.084.63-.28.63-.588V52.78h-1.946c-.402 0-.691.033-.868.098a.506.506 0 00-.35.336c-.056.168-.084.439-.084.812 0 .336.032.597.098.784a.688.688 0 00.35.392c.168.075.42.112.756.112h.252z" fill="#373737"/></svg>