<svg width="303" height="93" fill="none" xmlns="http://www.w3.org/2000/svg"><path d="M97.643 55.608c-2.469 0-5.522-.24-9.16-.717v-4.74c4.514.69 7.594 1.036 9.24 1.036 3.451 0 5.177-.89 5.177-2.668v-1.673c0-.85-.252-1.5-.756-1.951-.478-.452-1.355-.678-2.629-.678h-3.027c-5.682 0-8.522-2.256-8.522-6.77v-1.912c0-2.256.942-3.916 2.827-4.978 1.885-1.062 4.872-1.593 8.961-1.593 2.124 0 4.819.173 8.085.518v4.62c-4.01-.478-6.771-.717-8.284-.717-2.098 0-3.505.172-4.222.518-.77.371-1.155.955-1.155 1.752v1.832c0 1.354 1.142 2.031 3.425 2.031h3.107c2.947 0 5.084.544 6.412 1.633 1.327 1.088 1.991 2.748 1.991 4.978v1.713c0 3.08-1.102 5.164-3.305 6.252-1.063.558-2.244.943-3.545 1.155-1.274.24-2.814.359-4.62.359zm21.006 0c-1.805 0-3.159-.16-4.062-.478-.876-.345-1.5-.943-1.872-1.792-.345-.877-.518-2.178-.518-3.903 0-1.54.186-2.748.558-3.624.398-.877 1.022-1.5 1.872-1.872.876-.398 2.071-.598 3.584-.598h6.532v-1.314c0-.823-.12-1.434-.359-1.832-.212-.398-.624-.677-1.234-.836-.585-.16-1.474-.24-2.669-.24-1.646 0-3.903.16-6.77.479v-3.664c2.097-.266 4.553-.398 7.368-.398 2.469 0 4.367.185 5.695.557 1.354.372 2.323 1.009 2.907 1.912.584.902.876 2.217.876 3.942V55.21h-5.695v-1.752c-.451.77-1.062 1.314-1.832 1.633-.77.345-2.23.518-4.381.518zm2.27-3.624c1.168 0 2.005-.04 2.509-.12.372-.053.624-.133.757-.239.159-.106.292-.279.398-.518.106-.185.16-.464.16-.836v-3.744h-3.983c-.903 0-1.54.067-1.912.2a1.08 1.08 0 00-.756.716c-.133.346-.2.97-.2 1.872 0 .876.067 1.487.2 1.832.132.345.385.571.756.677.399.107 1.089.16 2.071.16zm16.227-12.466h-3.624v-3.584h3.624v-2.908c0-1.566.253-2.787.757-3.664.531-.902 1.328-1.526 2.39-1.871 1.088-.372 2.535-.558 4.341-.558.982 0 2.429.106 4.341.319v3.584c-1.699-.212-2.841-.319-3.425-.319-.983 0-1.66.16-2.031.478-.372.292-.558.863-.558 1.713v3.226h5.297v3.584h-5.297V55.21h-5.815V39.52zm23.645 16.09c-6.824 0-10.235-2.084-10.235-6.253v-6.93c0-2.416.77-4.168 2.31-5.257 1.566-1.088 3.969-1.633 7.208-1.633 3.053 0 5.284.532 6.691 1.594 1.434 1.035 2.15 2.8 2.15 5.296v4.7H156.41v1.752c0 1.115.398 1.912 1.195 2.39.796.478 2.23.717 4.301.717 1.912 0 4.062-.28 6.452-.837v3.704c-2.363.505-4.885.757-7.567.757zm2.589-11.789v-2.788c0-.637-.266-1.115-.797-1.433-.504-.319-1.367-.478-2.589-.478-1.407 0-2.349.16-2.827.478-.505.345-.757.823-.757 1.434v2.787h6.97zm19.618 11.789c-.983 0-1.806-.04-2.47-.12a9.063 9.063 0 01-1.991-.478c-.743-.239-1.354-.57-1.832-.995-.451-.425-.823-1.01-1.115-1.753-.319-.77-.478-1.66-.478-2.668V39.518h-3.903v-3.584h3.903v-5.576h5.815v5.576h5.296v3.584h-5.296v9.08c0 .93.079 1.633.239 2.111.159.451.464.783.916.996.451.186 1.141.279 2.071.279.371 0 1.062-.067 2.07-.2v3.625c-1.247.132-2.323.199-3.225.199zm12.036-.558l-7.686-19.116h6.332l4.341 13.62 3.943-13.62h6.013l-10.553 27.56h-5.895l3.505-8.444zm25.236-25.687h10.474c2.469 0 4.367.185 5.695.557 1.354.345 2.31.916 2.867 1.712.558.77.837 1.86.837 3.266v3.186c0 .717-.292 1.394-.876 2.031a4.31 4.31 0 01-1.992 1.315v.199c1.009.106 1.925.544 2.748 1.314.85.744 1.275 1.58 1.275 2.51v3.982c0 2.097-.837 3.584-2.509 4.46-1.673.876-4.262 1.314-7.766 1.314H220.27V29.362zm10.474 10.514c.982 0 1.712-.08 2.19-.24.478-.159.797-.411.956-.756.186-.372.279-.903.279-1.593v-1.275c0-.61-.08-1.062-.239-1.354-.159-.318-.491-.544-.996-.677-.478-.133-1.248-.199-2.31-.199h-4.142v6.093h4.262zm.159 10.912c1.514 0 2.589-.173 3.226-.518.637-.345.956-.903.956-1.673v-2.07c0-.956-.252-1.633-.757-2.032-.478-.398-1.341-.597-2.588-.597h-5.258v6.89h4.421zm24.086 4.819c-6.824 0-10.236-2.084-10.236-6.253v-6.93c0-2.416.77-4.168 2.31-5.257 1.567-1.088 3.969-1.633 7.209-1.633 3.053 0 5.283.532 6.69 1.594 1.434 1.035 2.151 2.8 2.151 5.296v4.7h-12.505v1.752c0 1.115.398 1.912 1.194 2.39.797.478 2.231.717 4.302.717 1.911 0 4.062-.28 6.451-.837v3.704c-2.363.505-4.885.757-7.566.757zm2.588-11.789v-2.788c0-.637-.265-1.115-.796-1.433-.505-.319-1.368-.478-2.589-.478-1.407 0-2.35.16-2.828.478-.504.345-.756.823-.756 1.434v2.787h6.969zm10.14-16.488h5.814V55.21h-5.814V27.331zm20.718 28.277c-.982 0-1.805-.04-2.469-.12a9.036 9.036 0 01-1.991-.478c-.744-.239-1.354-.57-1.832-.995-.452-.425-.823-1.01-1.116-1.753-.318-.77-.477-1.66-.477-2.668V39.518h-3.903v-3.584h3.903v-5.576h5.814v5.576h5.297v3.584h-5.297v9.08c0 .93.08 1.633.239 2.111.159.451.465.783.916.996.451.186 1.142.279 2.071.279.372 0 1.062-.067 2.071-.2v3.625c-1.248.132-2.323.199-3.226.199z" fill="#373737"/><path d="M0 51.339l17.956 10.116v20.99L0 72.33V51.339z" fill="#EC903A"/><path d="M35.912 51.339L17.956 61.455v20.99L35.912 72.33V51.339z" fill="#F1B856"/><path d="M0 51.339l17.87-10.622L35.912 51.34 17.87 61.536 0 51.339z" fill="#F3A83C"/><path d="M18.714 61.708L36.67 71.824v20.99L18.714 82.7V61.708z" fill="#EF9E4B"/><path d="M54.625 61.708L36.67 71.824v20.99L54.626 82.7V61.708z" fill="#F4C561"/><path d="M18.714 61.708l17.87-10.622 18.042 10.622-18.042 10.197-17.87-10.197z" fill="#F4B248"/><path d="M18.714 39.959L36.67 50.074v20.991L18.714 60.95V39.96z" fill="#EC903A"/><path d="M54.625 39.959L36.67 50.074v20.991L54.626 60.95V39.96z" fill="#F4C561"/><path d="M18.714 39.959l17.87-10.622 18.042 10.622-18.042 10.197-17.87-10.197z" fill="#F4B248"/><path d="M18.714 17.956L36.67 28.073v20.99L18.714 38.947v-20.99z" fill="#EF9E4B"/><path d="M54.625 17.956L36.67 28.073v20.99l17.956-10.116v-20.99z" fill="#F4C561"/><path d="M18.714 17.956l17.87-10.622 18.042 10.622-18.042 10.197-17.87-10.197z" fill="#F4B248"/><path d="M37.429 28.83l17.956 10.117v20.99L37.429 49.821v-20.99z" fill="#EC903A"/><path d="M73.34 28.83L55.386 38.948v20.99L73.34 49.821v-20.99z" fill="#F1B856"/><path d="M37.429 28.83l17.87-10.621L73.341 28.83 55.299 39.028 37.429 28.83z" fill="#F3A83C"/><path d="M89.29 72.39h5.48v6.853h-1.024v-6.145h-3.432v6.145H89.29v-6.852zm9.35 6.959a7.18 7.18 0 01-1.014-.053 2.245 2.245 0 01-.675-.2.989.989 0 01-.507-.508c-.106-.239-.159-.56-.159-.96v-1.774c0-.317.04-.595.117-.834.077-.24.179-.426.306-.56.105-.12.264-.211.475-.274.218-.07.44-.117.665-.138.253-.014.517-.02.792-.02.366 0 .64.01.823.03.19.015.391.05.602.106a1.1 1.1 0 01.507.285c.12.127.222.31.306.55.078.246.116.531.116.855v1.774c0 .598-.137 1.034-.411 1.309a1.14 1.14 0 01-.486.264c-.211.063-.43.106-.655.127-.267.014-.535.02-.802.02zm0-.623c.296 0 .51-.007.644-.021a1.11 1.11 0 00.39-.117.482.482 0 00.265-.274c.056-.134.084-.317.084-.549v-2.07c0-.316-.039-.545-.116-.686a.56.56 0 00-.401-.285c-.183-.05-.472-.074-.866-.074s-.686.025-.877.074a.555.555 0 00-.39.285c-.078.14-.116.37-.116.686v2.07c0 .232.024.415.074.549a.524.524 0 00.274.275c.127.063.257.102.39.116.135.014.35.02.645.02zm3.9-4.593h1.531l1.552 4.16h.042l1.447-4.16h1.478v5.11h-.876V75h-.053l-1.573 4.244h-.961L103.49 75h-.053v4.244h-.897v-5.11zm9.927 5.216a7.13 7.13 0 01-1.013-.053 2.238 2.238 0 01-.676-.2.988.988 0 01-.507-.508c-.106-.239-.158-.56-.158-.96v-1.774c0-.317.038-.595.116-.834.077-.24.179-.426.306-.56.106-.12.264-.211.475-.274.218-.07.44-.117.665-.138.254-.014.518-.02.792-.02.366 0 .641.01.824.03.19.015.39.05.602.106.218.064.387.159.506.285.12.127.222.31.307.55.077.246.116.531.116.855v1.774c0 .598-.138 1.034-.412 1.309a1.14 1.14 0 01-.486.264 3.356 3.356 0 01-.654.127c-.268.014-.535.02-.803.02zm0-.623c.296 0 .511-.007.644-.021.134-.014.264-.053.391-.117a.48.48 0 00.264-.274c.056-.134.084-.317.084-.549v-2.07c0-.316-.038-.545-.116-.686a.56.56 0 00-.401-.285c-.183-.05-.472-.074-.866-.074s-.686.025-.876.074a.557.557 0 00-.391.285c-.077.14-.116.37-.116.686v2.07c0 .232.025.415.074.549a.524.524 0 00.274.275c.127.063.257.102.391.116.134.014.349.02.644.02zm10.552.517h-6.652v-5.11h.95v4.413h1.996v-4.413h.961v4.413h1.995v-4.413h.951v4.413h.718v2.112h-.919v-1.415zm2.06-5.11h.95v1.848h1.309c.436 0 .781.031 1.035.095.26.063.45.176.57.338.12.154.179.376.179.665v1.056c0 .739-.622 1.108-1.868 1.108h-2.175v-5.11zm2.111 4.498c.204 0 .416-.028.634-.085.246-.063.369-.243.369-.538v-.644c0-.204-.028-.36-.084-.465-.049-.105-.144-.18-.285-.222-.134-.042-.338-.063-.613-.063h-1.193v2.017h1.172zm5.572-4.498H135c.458 0 .824.028 1.098.084.275.05.475.138.602.264a.85.85 0 01.232.37c.036.127.053.302.053.528v.18c0 .274-.07.478-.211.612-.141.133-.376.235-.707.306v.042c.816.14 1.224.496 1.224 1.066v.307c0 .345-.07.616-.211.813-.133.19-.359.327-.675.412-.317.084-.761.126-1.331.126h-2.312v-5.11zm2.323 2.154c.281 0 .492-.021.633-.064.141-.049.236-.123.285-.221.05-.106.074-.264.074-.475v-.064c0-.19-.028-.33-.084-.422-.05-.092-.148-.155-.296-.19-.141-.043-.355-.064-.644-.064h-1.341v1.5h1.373zm.042 2.27c.331 0 .581-.021.75-.064.169-.042.285-.109.348-.2.063-.099.095-.243.095-.433v-.338a.55.55 0 00-.222-.443c-.155-.113-.461-.17-.918-.17h-1.468v1.648h1.415zm6.121-4.424h4.318v5.11h-.95V74.83h-2.418v4.413h-.95v-5.11zm8.195 5.216a7.17 7.17 0 01-1.014-.053 2.24 2.24 0 01-.675-.2.985.985 0 01-.507-.508c-.106-.239-.159-.56-.159-.96v-1.774c0-.317.039-.595.117-.834.077-.24.179-.426.306-.56.105-.12.264-.211.475-.274.218-.07.44-.117.665-.138.253-.014.517-.02.792-.02.366 0 .641.01.824.03.19.015.39.05.601.106.219.064.388.159.507.285.12.127.222.31.306.55.078.246.117.531.117.855v1.774c0 .598-.138 1.034-.412 1.309a1.14 1.14 0 01-.486.264 3.351 3.351 0 01-.655.127c-.267.014-.535.02-.802.02zm0-.623c.296 0 .51-.007.644-.021.134-.014.264-.053.391-.117a.486.486 0 00.264-.274c.056-.134.084-.317.084-.549v-2.07c0-.316-.039-.545-.116-.686a.56.56 0 00-.401-.285c-.183-.05-.472-.074-.866-.074s-.686.025-.876.074a.555.555 0 00-.391.285c-.077.14-.116.37-.116.686v2.07c0 .232.024.415.074.549a.524.524 0 00.274.275c.127.063.257.102.391.116.134.014.348.02.644.02zm3.636.528c-.106 0-.208-.01-.306-.032v-.813c.098.021.197.032.295.032.303 0 .542-.219.718-.655.183-.443.275-1.26.275-2.45v-1.203h3.474v5.11h-.951v-4.487h-1.678v.739c0 1.161-.138 2.08-.412 2.756-.275.668-.746 1.003-1.415 1.003zm7.313.063l-1.975-5.184h1.035l1.425 4.17h.022l1.288-4.17h.961l-2.566 7.306h-.993l.803-2.122zm7.095-2.376c-.092.486-.651.729-1.679.729-.655 0-1.116-.116-1.383-.349-.261-.239-.391-.612-.391-1.119v-2.07h.95v2.007c0 .324.085.546.254.665.169.12.45.18.844.18.388 0 .68-.025.877-.074.204-.057.341-.145.412-.264.077-.12.116-.289.116-.507v-2.006h.95v5.11h-.95v-2.302zm4.754 2.408c-1.563 0-2.344-.521-2.344-1.563V75.77c0-.62.176-1.063.528-1.33.359-.274.936-.412 1.731-.412.753 0 1.295.13 1.626.39.338.261.507.712.507 1.352v1.13h-3.431v.77c0 .353.123.606.369.761.246.155.627.232 1.14.232.486 0 1.06-.084 1.721-.253v.729a8.695 8.695 0 01-1.847.21zm1.098-3.073v-.802c0-.31-.095-.521-.285-.634-.183-.12-.5-.18-.951-.18-.436 0-.753.06-.95.18-.197.113-.295.324-.295.634v.802h2.481zm2.398-2.143h.951v2.122h2.512v-2.122h.951v5.11h-.951v-2.291h-2.512v2.291h-.951v-5.11zm10.625 0v5.11h-.951v-3.77l-2.661 3.77h-.95v-5.11h.95v3.896l2.714-3.896h.898zm6.207 0v5.11h-.95v-3.77l-2.661 3.77h-.95v-5.11h.95v3.896l2.713-3.896h.898zm8.641 0v5.11h-.951v-3.77l-2.66 3.77h-.951v-5.11h.951v3.896l2.713-3.896h.898zm1.709 0h4.318v5.11h-.95V74.83h-2.418v4.413h-.95v-5.11zm8.195 5.216a7.17 7.17 0 01-1.014-.053 2.24 2.24 0 01-.675-.2.985.985 0 01-.507-.508c-.106-.239-.159-.56-.159-.96v-1.774c0-.317.039-.595.117-.834.077-.24.179-.426.306-.56.105-.12.264-.211.475-.274.218-.07.44-.117.665-.138.253-.014.517-.02.792-.02.366 0 .641.01.824.03.19.015.39.05.601.106.219.064.388.159.507.285.12.127.222.31.306.55.078.246.117.531.117.855v1.774c0 .598-.138 1.034-.412 1.309a1.14 1.14 0 01-.486.264 3.351 3.351 0 01-.655.127c-.267.014-.535.02-.802.02zm0-.623c.296 0 .51-.007.644-.021.134-.014.264-.053.391-.117a.486.486 0 00.264-.274c.056-.134.084-.317.084-.549v-2.07c0-.316-.039-.545-.116-.686a.56.56 0 00-.401-.285c-.183-.05-.472-.074-.866-.074s-.686.025-.876.074a.555.555 0 00-.391.285c-.077.14-.116.37-.116.686v2.07c0 .232.024.415.074.549a.524.524 0 00.274.275c.127.063.257.102.391.116.134.014.348.02.644.02zm5.125-3.896h-1.795v-.697h4.529v.697h-1.784v4.413h-.95V74.83zm6.031 4.519c-1.562 0-2.344-.521-2.344-1.563V75.77c0-.62.176-1.063.528-1.33.359-.274.937-.412 1.732-.412.753 0 1.295.13 1.626.39.338.261.507.712.507 1.352v1.13h-3.432v.77c0 .353.123.606.37.761.246.155.626.232 1.14.232.486 0 1.059-.084 1.721-.253v.729a8.697 8.697 0 01-1.848.21zm1.099-3.073v-.802c0-.31-.096-.521-.286-.634-.183-.12-.499-.18-.95-.18-.436 0-.753.06-.95.18-.197.113-.296.324-.296.634v.802h2.482zm5.851.665c-.092.486-.651.729-1.679.729-.655 0-1.116-.116-1.383-.349-.261-.239-.391-.612-.391-1.119v-2.07h.95v2.007c0 .324.085.546.254.665.169.12.45.18.844.18.387 0 .68-.025.877-.074.204-.057.341-.145.411-.264.078-.12.117-.289.117-.507v-2.006h.95v5.11h-.95v-2.302zm2.6-2.808h.95v2.122h2.513v-2.122h.95v5.11h-.95v-2.291h-2.513v2.291h-.95v-5.11zm8.227 5.216a7.18 7.18 0 01-1.014-.053 2.24 2.24 0 01-.675-.2.985.985 0 01-.507-.508c-.106-.239-.158-.56-.158-.96v-1.774c0-.317.038-.595.116-.834.077-.24.179-.426.306-.56.105-.12.264-.211.475-.274.218-.07.44-.117.665-.138.254-.014.518-.02.792-.02.366 0 .641.01.824.03.19.015.39.05.601.106.219.064.388.159.507.285.12.127.222.31.307.55.077.246.116.531.116.855v1.774c0 .598-.138 1.034-.412 1.309a1.14 1.14 0 01-.486.264 3.356 3.356 0 01-.654.127c-.268.014-.535.02-.803.02zm0-.623c.296 0 .51-.007.644-.021.134-.014.264-.053.391-.117a.48.48 0 00.264-.274c.056-.134.084-.317.084-.549v-2.07c0-.316-.038-.545-.116-.686a.56.56 0 00-.401-.285c-.183-.05-.472-.074-.866-.074s-.686.025-.876.074a.555.555 0 00-.391.285c-.077.14-.116.37-.116.686v2.07c0 .232.025.415.074.549a.524.524 0 00.274.275c.127.063.257.102.391.116.134.014.348.02.644.02zm3.9-4.593h3.337v.697h-2.387v4.413h-.95v-5.11zm6.535 5.216a7.17 7.17 0 01-1.014-.053 2.24 2.24 0 01-.675-.2.985.985 0 01-.507-.508c-.106-.239-.159-.56-.159-.96v-1.774c0-.317.039-.595.117-.834.077-.24.179-.426.306-.56.105-.12.264-.211.475-.274.218-.07.44-.117.665-.138.253-.014.517-.02.792-.02.366 0 .641.01.824.03.19.015.39.05.601.106.219.064.388.159.507.285.12.127.222.31.306.55.078.246.117.531.117.855v1.774c0 .598-.138 1.034-.412 1.309a1.14 1.14 0 01-.486.264 3.351 3.351 0 01-.655.127c-.267.014-.535.02-.802.02zm0-.623c.296 0 .51-.007.644-.021.134-.014.264-.053.391-.117a.486.486 0 00.264-.274c.056-.134.084-.317.084-.549v-2.07c0-.316-.039-.545-.116-.686a.56.56 0 00-.401-.285c-.183-.05-.472-.074-.866-.074s-.686.025-.876.074a.555.555 0 00-.391.285c-.077.14-.116.37-.116.686v2.07c0 .232.024.415.074.549a.524.524 0 00.274.275c.127.063.257.102.391.116.134.014.348.02.644.02zm6.259-4.593h.951v2.207a.45.45 0 00.253-.064c.07-.05.155-.123.254-.221l1.773-1.922h1.162l-2.323 2.418c.091.02.222.116.391.285.176.169.432.443.77.823l1.426 1.584h-1.172l-1.394-1.584a3.1 3.1 0 00-.56-.517 1.239 1.239 0 00-.295-.158.483.483 0 00-.169-.032h-.116v2.291h-.951v-5.11zm5.311 0h.95v.549c.078-.437.658-.655 1.742-.655.648 0 1.137.138 1.468.412.331.268.496.612.496 1.035v2.1c0 .304-.045.567-.137.793a1.31 1.31 0 01-.338.528c-.127.12-.303.214-.528.285-.218.07-.436.116-.654.137a6.913 6.913 0 01-.718.032c-.31 0-.595-.035-.856-.106-.253-.077-.411-.186-.475-.327v2.418h-.95v-7.201zm2.302 4.572c.366 0 .644-.025.834-.074.197-.056.338-.155.422-.296.085-.14.127-.355.127-.644v-1.88c0-.316-.042-.552-.127-.707a.624.624 0 00-.422-.306c-.19-.056-.472-.085-.845-.085s-.658.029-.855.085a.623.623 0 00-.412.306c-.084.155-.127.39-.127.708v1.879c0 .282.043.496.127.644.092.14.236.24.433.296.197.049.479.074.845.074zm5.966.644c-1.562 0-2.344-.521-2.344-1.563V75.77c0-.62.176-1.063.528-1.33.359-.274.936-.412 1.732-.412.753 0 1.295.13 1.626.39.338.261.507.712.507 1.352v1.13h-3.432v.77c0 .353.123.606.37.761.246.155.626.232 1.14.232.486 0 1.059-.084 1.721-.253v.729a8.697 8.697 0 01-1.848.21zm1.098-3.073v-.802c0-.31-.095-.521-.285-.634-.183-.12-.499-.18-.95-.18-.436 0-.753.06-.95.18-.197.113-.296.324-.296.634v.802h2.481zm7.245 2.344v2.038h-.813v-1.415h-3.938v1.415h-.813V78.62h.327c.155 0 .306-.116.454-.348.148-.24.271-.62.37-1.14.098-.529.148-1.197.148-2.007v-.992h3.547v4.487h.718zm-1.668 0v-3.864h-1.763v.739c0 .732-.049 1.362-.148 1.89-.092.52-.264.932-.517 1.235h2.428zm7.374-4.487v5.11h-.95v-3.77l-2.661 3.77h-.95v-5.11h.95v3.896l2.714-3.896h.897zm2.934.697h-1.795v-.697h4.53v.697h-1.785v4.413h-.95V74.83zm5.451 4.519c-.486 0-.862-.046-1.13-.138a.981.981 0 01-.57-.485c-.112-.233-.169-.567-.169-1.003 0-.387.053-.687.159-.898a.952.952 0 01.559-.464c.268-.092.644-.138 1.13-.138h1.531v-.813c0-.19-.039-.334-.116-.432-.07-.106-.194-.18-.37-.222-.169-.043-.418-.064-.749-.064-.528 0-1.112.043-1.753.127v-.697a21.078 21.078 0 011.89-.095c.591 0 1.028.046 1.309.138.282.084.475.235.581.453.106.219.158.557.158 1.014v3.611h-.918v-.486c-.078.395-.592.592-1.542.592zm.159-.623c.344 0 .637-.025.876-.074.317-.064.475-.211.475-.444v-1.393h-1.468c-.302 0-.521.024-.654.074a.381.381 0 00-.264.253c-.042.127-.064.33-.064.612 0 .254.025.45.074.592.05.133.138.232.264.295.127.057.317.085.57.085h.191z" fill="#373737"/></svg>