<svg width="61" height="61" fill="none" xmlns="http://www.w3.org/2000/svg"><g filter="url(#filter0_d)"><circle cx="26.5" cy="26.5" r="25.5" fill="#EC903A"/><circle cx="26.5" cy="26.5" r="25.5" stroke="#fff" stroke-width="2"/></g><path d="M11.486 26.809l7.336 4.132v8.576l-7.336-4.133V26.81z" fill="#FFD29C"/><path d="M26.158 26.809l-7.336 4.132v8.576l7.336-4.133V26.81z" fill="#FFEFD4"/><path d="M11.486 26.809l7.3-4.34 7.371 4.34-7.37 4.166-7.3-4.166z" fill="#FFEFD4"/><path d="M19.131 31.045l7.336 4.132v8.576L19.13 39.62v-8.575z" fill="#FFBE7B"/><path d="M33.803 31.045l-7.336 4.132v8.576l7.336-4.133v-8.575z" fill="#fff"/><path d="M19.131 31.045l7.3-4.34 7.372 4.34-7.371 4.166-7.3-4.166z" fill="#FFEFD4"/><path d="M19.131 22.16l7.336 4.132v8.575l-7.336-4.132v-8.576z" fill="#FFD29C"/><path d="M33.803 22.16l-7.336 4.132v8.575l7.336-4.132v-8.576z" fill="#fff"/><path d="M19.131 22.16l7.3-4.34 7.372 4.34-7.371 4.165-7.3-4.166z" fill="#FFEFD4"/><path d="M19.131 13.17l7.336 4.133v8.576l-7.336-4.133v-8.575z" fill="#FFBE7B"/><path d="M33.803 13.17l-7.336 4.133v8.576l7.336-4.133v-8.575z" fill="#fff"/><path d="M19.131 13.17l7.3-4.339 7.372 4.34-7.371 4.166-7.3-4.166z" fill="#FFEFD4"/><path d="M26.777 17.613l7.335 4.133v8.576l-7.335-4.133v-8.576z" fill="#FFD29C"/><path d="M41.448 17.613l-7.335 4.133v8.576l7.335-4.133v-8.576z" fill="#FFEFD4"/><path d="M26.777 17.613l7.3-4.339 7.371 4.34-7.37 4.165-7.301-4.166z" fill="#fff"/><defs><filter id="filter0_d" x="0" y="0" width="61" height="61" filterUnits="userSpaceOnUse" color-interpolation-filters="sRGB"><feFlood flood-opacity="0" result="BackgroundImageFix"/><feColorMatrix in="SourceAlpha" values="0 0 0 0 0 0 0 0 0 0 0 0 0 0 0 0 0 0 127 0"/><feOffset dx="4" dy="4"/><feGaussianBlur stdDeviation="2"/><feColorMatrix values="0 0 0 0 0 0 0 0 0 0 0 0 0 0 0 0 0 0 0.07 0"/><feBlend in2="BackgroundImageFix" result="effect1_dropShadow"/><feBlend in="SourceGraphic" in2="effect1_dropShadow" result="shape"/></filter></defs></svg>