<svg width="50" height="46" fill="none" xmlns="http://www.w3.org/2000/svg"><path d="M.5 5A4.5 4.5 0 015 .5h30C43.008.5 49.5 6.992 49.5 15v16c0 8.008-6.492 14.5-14.5 14.5H15C6.992 45.5.5 39.008.5 31V5z" stroke="#959595"/><path d="M28.204 21.316h6.461v-2.518c0-.795-.653-1.449-1.449-1.449H18.24a.83.83 0 01-.28-.623c0-.463.38-.843.844-.843h14.128v-1.01a.874.874 0 00-.873-.873H16.873a.874.874 0 00-.873.873v12.899c0 .095.018.19.047.279v2.5c0 .796.654 1.449 1.45 1.449h15.72c.795 0 1.448-.653 1.448-1.449v-2.613h-.825c-.226.06-.464.09-.707.09h-4.929a2.859 2.859 0 01-2.85-2.851v-1.004a2.86 2.86 0 012.85-2.857z" fill="#333"/><path d="M34.89 22.41h-6.888c-.903 0-1.645.741-1.645 1.644v1.325c0 .902.742 1.644 1.645 1.644h6.889a.46.46 0 00.457-.457v-3.7a.461.461 0 00-.457-.457zm-6.247 3.426a1.166 1.166 0 01-1.164-1.164 1.165 1.165 0 111.164 1.164z" fill="#333"/></svg>