<svg width="25" height="25" fill="none" xmlns="http://www.w3.org/2000/svg"><path d="M23.851 12.501l1.097-2.86a.782.782 0 00-.237-.888l-2.378-1.928-.481-3.027a.781.781 0 00-.65-.648l-3.027-.481-1.927-2.38a.782.782 0 00-.885-.237L12.5 1.15 9.64.053a.78.78 0 00-.887.238L6.825 2.67 3.8 3.15a.783.783 0 00-.649.65l-.48 3.026L.29 8.755a.782.782 0 00-.238.886L1.15 12.5.052 15.362a.78.78 0 00.238.886l2.38 1.927.48 3.026a.781.781 0 00.649.65l3.026.481 1.928 2.378c.214.266.572.36.888.238l2.86-1.095 2.86 1.096a.783.783 0 00.887-.239l1.927-2.378 3.026-.48a.783.783 0 00.65-.65l.482-3.027 2.378-1.927a.78.78 0 00.237-.886l-1.097-2.86z" fill="#F76747"/><path d="M10.156 10.939a2.347 2.347 0 01-2.343-2.344 2.347 2.347 0 012.343-2.344A2.347 2.347 0 0112.5 8.595a2.347 2.347 0 01-2.344 2.344zm0-3.125a.782.782 0 100 1.563.782.782 0 000-1.563zm4.688 10.936a2.347 2.347 0 01-2.344-2.343 2.347 2.347 0 012.344-2.344 2.347 2.347 0 012.344 2.344 2.347 2.347 0 01-2.344 2.344zm0-3.124a.784.784 0 00-.781.781c0 .43.351.781.78.781.43 0 .782-.351.782-.78a.784.784 0 00-.781-.782zm-6.25 3.124a.781.781 0 01-.634-1.236l7.812-10.936a.78.78 0 111.271.908L9.231 18.423a.785.785 0 01-.637.328z" fill="#FAFAFA"/></svg>