<svg width="65" height="65" fill="none" xmlns="http://www.w3.org/2000/svg"><circle cx="32.5" cy="32.5" r="32.5" fill="#FFB927" fill-opacity=".1"/><g clip-path="url(#clip0)" fill="#FFB927"><path d="M32 36.134a1.686 1.686 0 100-3.372 1.686 1.686 0 000 3.372zm2.502 4.025A2.505 2.505 0 0032 37.657a2.505 2.505 0 00-2.502 2.502V45h5.004v-4.841z"/><path d="M44.238 43.477h-.87v-6.622a2.28 2.28 0 01-.746-.498L32 25.734 21.378 36.357a2.28 2.28 0 01-.746.498v6.622h-.87a.762.762 0 000 1.523h8.213v-4.84c0-1.41.73-2.653 1.83-3.372a3.2 3.2 0 01-1.014-2.34A3.213 3.213 0 0132 31.239c1.77 0 3.21 1.44 3.21 3.21a3.2 3.2 0 01-1.016 2.339 4.024 4.024 0 011.831 3.372V45h8.213a.762.762 0 000-1.523z"/><path d="M44.777 31.461l-1.409-1.408v-7.79h.054a.76.76 0 00.762-.761v-1.74a.762.762 0 00-.762-.762h-4.895a.762.762 0 00-.762.762v1.74c0 .42.341.762.762.762h.054v3.002l-6.042-6.043a.762.762 0 00-1.078 0L19.223 31.461A.762.762 0 0019 32v2.74a.762.762 0 001.3.54l11.161-11.162a.762.762 0 011.078 0l11.16 11.162A.762.762 0 0045 34.74V32a.762.762 0 00-.223-.539z"/></g><defs><clipPath id="clip0"><path fill="#fff" transform="translate(19 19)" d="M0 0h26v26H0z"/></clipPath></defs></svg>