<svg width="55" height="55" fill="none" xmlns="http://www.w3.org/2000/svg"><circle cx="27.5" cy="27.5" r="27.5" fill="#FFB927" fill-opacity=".1"/><g clip-path="url(#clip0)"><path d="M18.596 37.983l6.045-4.048h10.815a2.579 2.579 0 002.597-2.575V18.652a2.579 2.579 0 00-2.597-2.575H20.39a2.579 2.579 0 00-2.597 2.575v18.887c0 .444.472.679.803.444zm10.177-8.542c0 .28-.212.492-.496.492h-1.275a.482.482 0 01-.496-.492v-.82c0-.28.213-.49.496-.49h1.275c.284 0 .496.21.496.49v.82zm-3.33-8.66c.614-.468 1.417-.702 2.41-.702 1.062 0 1.912.258 2.526.796.614.538.92 1.264.92 2.153a2.62 2.62 0 01-.495 1.545 3.4 3.4 0 01-1.275 1.1 1.788 1.788 0 00-.59.608c-.072.14-.119.328-.142.562-.024.187-.166.304-.355.304h-1.558c-.213 0-.378-.163-.354-.374.047-.445.141-.772.33-1.03.213-.304.614-.679 1.205-1.076.307-.188.543-.422.708-.703.165-.28.26-.585.26-.96 0-.374-.095-.678-.307-.889-.213-.234-.496-.327-.874-.327a1.08 1.08 0 00-.756.28.933.933 0 00-.26.445.486.486 0 01-.519.351h-1.44c-.19 0-.33-.163-.307-.327.047-.773.33-1.358.873-1.756z" fill="#FFB927"/></g><defs><clipPath id="clip0"><path d="M17.77 21.077a5 5 0 015-5h4.307c6.075 0 11 4.925 11 11v.846c0 5.608-4.546 10.154-10.154 10.154S17.77 33.531 17.77 27.923v-6.846z" fill="#fff"/></clipPath></defs></svg>