<svg width="65" height="65" fill="none" xmlns="http://www.w3.org/2000/svg"><circle cx="32.5" cy="32.5" r="32.5" fill="#FFB927" fill-opacity=".1"/><g clip-path="url(#clip0)" fill="#FFB927"><path d="M22 42.333c-1.445 0-2.667-1.286-2.667-2.81 0-.91.42-1.767 1.127-2.293.339-.253.54-.688.54-1.163v-7.4a1 1 0 012 0v7.4c0 1.102-.503 2.137-1.344 2.766a.853.853 0 00-.323.69c0 .465.352.81.667.81.367 0 .667-.362.667-.81a1 1 0 012 0c0 1.55-1.196 2.81-2.667 2.81zM40 49a1 1 0 01-1-1V28a1 1 0 012 0v20a1 1 0 01-1 1zm-4.667 0a1 1 0 01-1-1V28a1 1 0 012 0v20a1 1 0 01-1 1z"/><path d="M40 46.667a.994.994 0 01-.752-.342l-4.667-5.333a1 1 0 111.505-1.316l4.667 5.333A1.001 1.001 0 0140 46.667zm0-6a.994.994 0 01-.752-.342l-4.667-5.333a1 1 0 111.505-1.316l4.667 5.333A1.001 1.001 0 0140 40.667zm0-6a.994.994 0 01-.752-.342l-4.667-5.333a1 1 0 011.505-1.316l4.667 5.333A1.001 1.001 0 0140 34.667z"/><path d="M48.28 24.707l-8-2.334c-.037-.01-.075 0-.112-.005-.056-.01-.108-.034-.168-.034h-4.667c-.025 0-.045.012-.069.014-.021.002-.041-.008-.063-.005l-17.333 2.333a1 1 0 00-.868.99V28a1 1 0 001 1h30a1 1 0 001-1v-2.333a1 1 0 00-.72-.96z"/><path d="M37.667 24a1 1 0 01-1-1v-5a1 1 0 012 0v5a1 1 0 01-1 1zM48 33h-3.667a1 1 0 01-1-1v-4a1 1 0 011-1H48a1 1 0 011 1v4a1 1 0 01-1 1z"/><path d="M19.667 26.359a1.001 1.001 0 01-.38-1.926l18-7.358a1 1 0 011.009.148l8.667 7a1 1 0 11-1.26 1.556l-8.204-6.63-17.454 7.135c-.125.05-.252.075-.378.075z"/></g><defs><clipPath id="clip0"><path fill="#fff" transform="translate(17 17)" d="M0 0h32v32H0z"/></clipPath></defs></svg>