<svg width="65" height="65" fill="none" xmlns="http://www.w3.org/2000/svg"><circle cx="32.5" cy="32.5" r="32.5" fill="#FFB927" fill-opacity=".1"/><path d="M45.514 31.111L33.87 20.388a1.314 1.314 0 00-1.793 0L20.436 31.11c-.41.377-.545.958-.345 1.48.2.522.687.86 1.241.86h1.86v10.743c0 .426.341.771.763.771h6.381a.767.767 0 00.764-.77V37.67h3.75v6.523c0 .426.342.771.763.771h6.382a.767.767 0 00.763-.77V33.45h1.86c.553 0 1.04-.337 1.24-.859.2-.522.065-1.103-.344-1.48zm-2.956-9.537h-5.125l5.888 5.412v-4.64a.767.767 0 00-.763-.772z" fill="#FFB927"/></svg>