<svg width="55" height="55" fill="none" xmlns="http://www.w3.org/2000/svg"><circle cx="27.5" cy="27.5" r="27.5" fill="#FFB927" fill-opacity=".1"/><g clip-path="url(#clip0)" fill="#FFB927"><path d="M27.363 26.686c1.273 0 2.375-.481 3.275-1.43.9-.95 1.357-2.11 1.357-3.452 0-1.34-.457-2.502-1.357-3.451-.9-.95-2.003-1.43-3.275-1.43-1.273 0-2.375.48-3.275 1.43-.9.949-1.358 2.11-1.358 3.451 0 1.342.457 2.503 1.358 3.452.9.949 2.002 1.43 3.275 1.43zm8.105 5.822a12.661 12.661 0 00-.156-1.28 10.517 10.517 0 00-.299-1.289 6.535 6.535 0 00-.502-1.2 4.513 4.513 0 00-.757-1.04 3.322 3.322 0 00-1.088-.721 3.591 3.591 0 00-1.39-.265c-.196 0-.386.085-.752.336-.226.156-.49.335-.784.533-.252.17-.594.328-1.015.472-.412.14-.83.21-1.241.21-.412 0-.83-.07-1.242-.21-.42-.144-.762-.302-1.014-.471a93.917 93.917 0 01-.785-.534c-.366-.251-.556-.336-.752-.336-.5 0-.967.09-1.389.265a3.317 3.317 0 00-1.088.72c-.286.289-.54.639-.757 1.04a6.556 6.556 0 00-.503 1.202 12.435 12.435 0 00-.454 2.568c-.026.388-.039.79-.039 1.197 0 1.058.32 1.915.949 2.546.621.624 1.444.94 2.444.94h9.26c1 0 1.823-.316 2.444-.94.63-.63.949-1.488.949-2.546 0-.408-.013-.811-.039-1.197z"/></g><defs><clipPath id="clip0"><path d="M19.461 20.942c0-2.22 1.8-4.02 4.02-4.02h1.903c5.608 0 10.154 4.547 10.154 10.155v2.115a8.038 8.038 0 11-16.077 0v-8.25z" fill="#fff"/></clipPath></defs></svg>