<svg width="65" height="65" fill="none" xmlns="http://www.w3.org/2000/svg"><circle cx="32.5" cy="32.5" r="32.5" fill="#FFB927" fill-opacity=".1"/><g clip-path="url(#clip0)"><path d="M27.046 46.915a.788.788 0 00.98-.223l12.8-16.46a.839.839 0 00.096-.869.8.8 0 00-.721-.465h-5.106l4.221-8.71a.837.837 0 00-.035-.799.796.796 0 00-.68-.389H29a.804.804 0 00-.776.622l-3.2 13.18a.834.834 0 00.146.703c.151.2.384.315.63.315h3.775l-2.95 12.161a.827.827 0 00.42.934z" fill="#FFB927"/></g><defs><clipPath id="clip0"><path fill="#fff" transform="translate(25 19)" d="M0 0h16v28H0z"/></clipPath></defs></svg>