<svg width="65" height="65" fill="none" xmlns="http://www.w3.org/2000/svg"><circle cx="32.5" cy="32.5" r="32.5" fill="#FFB927" fill-opacity=".1"/><g clip-path="url(#clip0)" fill="#FFB927"><path d="M35.659 20.104l-12.364-1.88a1.994 1.994 0 00-1.598.44A2.012 2.012 0 0021 20.17v23.704c0 .619.506 1.125 1.125 1.125h3.656v-5.906c0-1.092.878-1.97 1.969-1.97h2.813c1.09 0 1.968.878 1.968 1.97V45h4.782V22.05a1.97 1.97 0 00-1.654-1.946zm-8.471 14.49H25.5a.844.844 0 010-1.688h1.688a.844.844 0 010 1.688zm0-3.375H25.5a.844.844 0 010-1.688h1.688a.844.844 0 010 1.688zm0-3.375H25.5a.844.844 0 010-1.688h1.688a.844.844 0 010 1.688zm0-3.375H25.5a.844.844 0 010-1.688h1.688a.844.844 0 010 1.688zm5.625 10.125h-1.688a.844.844 0 010-1.688h1.688a.844.844 0 010 1.688zm0-3.375h-1.688a.844.844 0 010-1.688h1.688a.844.844 0 010 1.688zm0-3.375h-1.688a.844.844 0 010-1.688h1.688a.844.844 0 010 1.688zm0-3.375h-1.688a.844.844 0 010-1.688h1.688a.844.844 0 010 1.688zm13.635 5.728l-8.01-1.677V45h7.593a1.97 1.97 0 001.97-1.969v-10.91c0-.93-.634-1.72-1.553-1.924zM43.78 41.625h-1.687a.844.844 0 010-1.688h1.687a.844.844 0 010 1.688zm0-3.375h-1.687a.844.844 0 010-1.688h1.687a.844.844 0 010 1.688zm0-3.375h-1.687a.844.844 0 010-1.688h1.687a.844.844 0 010 1.688z"/></g><defs><clipPath id="clip0"><path fill="#fff" transform="translate(21 18)" d="M0 0h27v27H0z"/></clipPath></defs></svg>