<svg width="65" height="65" fill="none" xmlns="http://www.w3.org/2000/svg"><circle cx="32.5" cy="32.5" r="32.5" fill="#FFB927" fill-opacity=".1"/><path d="M32.7 24.634c2.261 0 4.093-1.933 4.093-4.314 0-2.386-1.832-4.32-4.093-4.32-2.263 0-4.098 1.934-4.098 4.32 0 2.38 1.835 4.314 4.098 4.314zm7.262 3.661c-.203-.63-1.364-2.539-4.514-2.556l-6.167.016c-3.058-.174-4.278 1.668-4.47 2.485 0 0-2.065 6.724-1.71 8.282.22.967 1.865 2.15 3.616 3.03l-1.912 5.942a1 1 0 00.951 1.306H39.49a1 1 0 00.957-1.29l-1.88-6.213c1.564-.843 2.938-1.896 3.137-2.775.359-1.576-1.74-8.227-1.74-8.227zm-10.02 7.41c-.286.13-.603.205-.934.205-1.287 0-2.328-1.08-2.328-2.41s1.043-2.408 2.328-2.408c1.262 0 2.3 1.043 2.334 2.343a2.77 2.77 0 011.12-.489v.007c.462-.09.82 0 .82 0 1.553.35 4.984 1.903 4.984 1.903s-1.841 2.325-5.185 2.31a5.3 5.3 0 01-.254-.006 8.488 8.488 0 01-.834-.059c-1.58-.19-2.031-.79-2.051-1.396z" fill="#FFB927"/></svg>