<svg width="50" height="46" fill="none" xmlns="http://www.w3.org/2000/svg"><path d="M0 5a5 5 0 015-5h30c8.284 0 15 6.716 15 15v16c0 8.284-6.716 15-15 15H15C6.716 46 0 39.284 0 31V5z" fill="url(#paint0_linear)"/><g clip-path="url(#clip0)"><path d="M20.663 34.93a.635.635 0 00.796-.183l10.4-13.521a.695.695 0 00.078-.713.65.65 0 00-.586-.382h-4.148l3.43-7.156a.694.694 0 00-.03-.655.646.646 0 00-.552-.32h-7.8a.655.655 0 00-.63.51l-2.6 10.827a.69.69 0 00.118.578.643.643 0 00.512.259h3.067l-2.397 9.989a.682.682 0 00.342.767z" fill="#fff"/></g><defs><linearGradient id="paint0_linear" x1="25" y1="0" x2="25" y2="46" gradientUnits="userSpaceOnUse"><stop offset=".438" stop-color="#FFB927"/><stop offset="1" stop-color="#F29F22"/></linearGradient><clipPath id="clip0"><path fill="#fff" transform="translate(19 12)" d="M0 0h13v23H0z"/></clipPath></defs></svg>