<svg width="50" height="46" fill="none" xmlns="http://www.w3.org/2000/svg"><path d="M50 5a5 5 0 00-5-5H15C6.716 0 0 6.716 0 15v16c0 8.284 6.716 15 15 15h20c8.284 0 15-6.716 15-15V5z" fill="url(#paint0_linear)"/><path d="M16.102 20.423a.95.95 0 01.82-.647l5.18-.465 2.048-4.738a.954.954 0 01.878-.573c.383 0 .727.225.877.573l2.047 4.738 5.18.465c.38.035.702.289.821.647.118.36.01.754-.278 1.003l-3.916 3.394 1.155 5.027a.937.937 0 01-.371.973.957.957 0 01-1.049.046l-4.466-2.64-4.466 2.64a.962.962 0 01-1.05-.046.937.937 0 01-.37-.973l1.154-5.027-3.915-3.394a.937.937 0 01-.279-1.003z" fill="#fff"/><defs><linearGradient id="paint0_linear" x1="25" y1="0" x2="25" y2="46" gradientUnits="userSpaceOnUse"><stop offset=".438" stop-color="#FFB927"/><stop offset="1" stop-color="#F29F22"/></linearGradient></defs></svg>