<svg width="50" height="46" fill="none" xmlns="http://www.w3.org/2000/svg"><path d="M0 5a5 5 0 015-5h30c8.284 0 15 6.716 15 15v16c0 8.284-6.716 15-15 15H15C6.716 46 0 39.284 0 31V5z" fill="url(#paint0_linear)"/><path d="M33.898 20.423a.95.95 0 00-.82-.647l-5.18-.465-2.048-4.738a.954.954 0 00-.878-.573.952.952 0 00-.877.573l-2.047 4.738-5.18.465a.953.953 0 00-.821.647.937.937 0 00.278 1.003l3.916 3.394-1.155 5.027a.937.937 0 00.371.973.957.957 0 001.049.046l4.466-2.64 4.466 2.64a.962.962 0 001.05-.046.937.937 0 00.37-.973l-1.154-5.027 3.915-3.394a.937.937 0 00.279-1.003z" fill="#fff"/><defs><linearGradient id="paint0_linear" x1="25" y1="0" x2="25" y2="46" gradientUnits="userSpaceOnUse"><stop offset=".438" stop-color="#FFB927"/><stop offset="1" stop-color="#F29F22"/></linearGradient></defs></svg>