<svg width="54" height="50" fill="none" xmlns="http://www.w3.org/2000/svg"><path d="M0 15C0 6.716 6.716 0 15 0h34a5 5 0 015 5v30c0 8.284-6.716 15-15 15H15C6.716 50 0 43.284 0 35V15z" fill="#FFB927"/><path d="M37.262 29.319l-2.87-2.888c-1.025-1.032-2.767-.619-3.177.722-.307.928-1.332 1.444-2.255 1.238-2.05-.516-4.817-3.198-5.329-5.364-.307-.928.308-1.96 1.23-2.27 1.332-.412 1.742-2.165.717-3.197l-2.87-2.888c-.82-.722-2.05-.722-2.766 0l-1.948 1.96c-1.947 2.063.205 7.53 5.022 12.377 4.817 4.848 10.249 7.118 12.299 5.055l1.947-1.96c.717-.825.717-2.063 0-2.785z" fill="#fff"/></svg>