<svg width="50" height="46" fill="none" xmlns="http://www.w3.org/2000/svg"><path d="M0 5a5 5 0 015-5h30c8.284 0 15 6.716 15 15v16c0 8.284-6.716 15-15 15H15C6.716 46 0 39.284 0 31V5z" fill="#FFB927"/><path d="M34.502 26.973l-2.657-2.657c-.95-.949-2.563-.569-2.942.665-.285.854-1.234 1.328-2.088 1.138-1.898-.474-4.46-2.941-4.934-4.934-.285-.854.284-1.803 1.138-2.088 1.234-.38 1.614-1.993.665-2.942l-2.658-2.657c-.759-.664-1.897-.664-2.562 0l-1.803 1.803c-1.803 1.898.19 6.928 4.65 11.388s9.49 6.548 11.388 4.65l1.803-1.803c.664-.76.664-1.898 0-2.563z" fill="#fff"/></svg>