<svg width="47" height="44" fill="none" xmlns="http://www.w3.org/2000/svg"><path d="M45.9 5.564a4.173 4.173 0 00-4.173-4.173H13.91C6.483 1.39.464 7.41.464 14.836v14.837c0 7.425 6.02 13.445 13.445 13.445h18.545c7.426 0 13.446-6.02 13.446-13.445V5.563z" stroke="#959595" stroke-width=".927"/><path d="M22.718 13.909c4.858 0 8.81 3.951 8.81 8.809 0 4.857-3.952 8.809-8.81 8.809-4.857 0-8.809-3.952-8.809-8.81 0-4.857 3.952-8.808 8.81-8.808zm-.734 8.809c0 .406.328.734.734.734h2.937a.734.734 0 100-1.468h-2.203v-4.405a.733.733 0 10-1.468 0v5.139z" fill="#333"/></svg>