<svg width="50" height="46" fill="none" xmlns="http://www.w3.org/2000/svg"><path d="M0 5a5 5 0 015-5h30c8.284 0 15 6.716 15 15v16c0 8.284-6.716 15-15 15H15C6.716 46 0 39.284 0 31V5z" fill="#333"/><path d="M39.035 15.126l-.009-.034c-.692-2.797-3.81-5.798-6.675-6.423l-.032-.006a37.093 37.093 0 00-13.962 0l-.033.006c-2.863.625-5.982 3.626-6.675 6.423l-.007.034a27.326 27.326 0 000 11.772l.007.034c.663 2.678 3.55 5.54 6.307 6.328v3.122c0 1.13 1.377 1.685 2.16.87l3.163-3.288c.686.038 1.373.06 2.06.06 2.331 0 4.664-.22 6.98-.663l.032-.006c2.865-.625 5.983-3.626 6.675-6.423l.009-.034a27.327 27.327 0 000-11.772zm-2.503 11.206c-.462 1.824-2.83 4.093-4.712 4.512a34.574 34.574 0 01-7.426.6.176.176 0 00-.131.053l-2.31 2.37-2.456 2.522a.287.287 0 01-.495-.199v-5.17a.178.178 0 00-.145-.175h-.002c-1.881-.42-4.249-2.688-4.711-4.512a24.8 24.8 0 010-10.64c.462-1.825 2.83-4.093 4.711-4.512a34.546 34.546 0 0112.965 0c1.883.42 4.25 2.688 4.712 4.512.77 3.53.77 7.11 0 10.64z" fill="#fff"/><path d="M29.431 28.719c-.29-.088-.565-.147-.82-.253-2.654-1.1-5.095-2.52-7.03-4.697-1.099-1.238-1.96-2.635-2.687-4.114-.345-.702-.636-1.43-.933-2.154-.27-.66.128-1.343.547-1.84.394-.467.9-.825 1.448-1.088.428-.205.85-.087 1.162.276.676.784 1.296 1.608 1.799 2.517.308.559.224 1.242-.336 1.622-.136.093-.26.201-.387.306a1.268 1.268 0 00-.292.308.843.843 0 00-.056.74c.69 1.898 1.854 3.373 3.764 4.168.306.127.613.275.965.234.59-.069.78-.715 1.193-1.053.404-.33.92-.335 1.355-.06.435.276.857.571 1.277.87.411.293.821.58 1.2.915.366.321.491.743.286 1.18-.377.798-.924 1.463-1.714 1.887-.223.12-.49.159-.74.236-.29-.088.25-.077 0 0zM25.345 13.66c3.47.097 6.32 2.4 6.931 5.83.104.585.141 1.182.188 1.776.019.25-.122.486-.392.49-.278.003-.403-.23-.421-.48-.036-.493-.06-.99-.128-1.479-.36-2.585-2.42-4.723-4.994-5.182-.387-.07-.783-.087-1.175-.129-.248-.026-.573-.04-.628-.349-.046-.258.172-.464.418-.477.067-.004.134 0 .201 0 3.47.097-.067 0 0 0z" fill="#fff"/><path d="M30.619 20.496c-.006.043-.01.145-.035.24-.092.35-.62.393-.741.041a1.05 1.05 0 01-.042-.335c-.001-.735-.161-1.47-.532-2.109a3.924 3.924 0 00-1.645-1.544 4.735 4.735 0 00-1.312-.402c-.198-.033-.398-.053-.596-.08-.241-.034-.37-.188-.358-.425.01-.222.173-.382.415-.368.797.045 1.566.217 2.274.592 1.44.762 2.262 1.966 2.502 3.572.01.073.028.145.034.218.013.181.022.362.036.6-.006.043-.014-.238 0 0z" fill="#fff"/><path d="M28.46 20.412c-.29.005-.445-.156-.475-.422-.021-.186-.037-.374-.082-.554-.087-.356-.276-.685-.575-.903a1.5 1.5 0 00-.469-.227c-.213-.061-.434-.044-.647-.096-.23-.057-.358-.244-.322-.46a.417.417 0 01.44-.335c1.346.097 2.307.792 2.444 2.376.01.112.021.23-.003.337-.043.183-.178.275-.31.284-.29.005.132-.01 0 0z" fill="#fff"/></svg>