<svg width="26" height="27" fill="none" xmlns="http://www.w3.org/2000/svg"><path d="M25.342 20.65v3.28a2.404 2.404 0 01-2.4 2.408H3.022a2.404 2.404 0 01-2.4-2.409V6.361h22.32c1.325 0 2.4 1.078 2.4 2.408v3.629h-5.416a2.404 2.404 0 00-2.4 2.408v3.435a2.404 2.404 0 002.4 2.41h5.416z" fill="#F76747"/><path d="M25.342 12.398v8.252h-5.416a2.404 2.404 0 01-2.4-2.409v-3.435a2.404 2.404 0 012.4-2.408h5.416zM19.423 3.01v3.35H.623l-.024-.065L16.222.74a2.392 2.392 0 012.186.302 2.41 2.41 0 011.015 1.968z" fill="#FFB927"/><path d="M22.943 5.758h-2.92V3.011c0-.978-.472-1.895-1.268-2.46a2.99 2.99 0 00-2.733-.378L.397 5.728l-.046.017.024.068a.602.602 0 00-.351.548v17.568a3.009 3.009 0 003 3.01h19.919a3.009 3.009 0 003-3.01V8.77a3.009 3.009 0 00-3-3.01zm-6.52-4.45a1.794 1.794 0 011.64.228c.477.338.761.888.76 1.475v2.748H3.907l12.517-4.45zm6.52 24.427H3.023a1.805 1.805 0 01-1.8-1.806V6.963h21.72c.994 0 1.799.809 1.8 1.806v3.027h-4.816a3.009 3.009 0 00-3 3.01v3.435a3.009 3.009 0 003 3.011h4.816v2.677a1.805 1.805 0 01-1.8 1.806zM24.743 13v7.048h-4.816a1.805 1.805 0 01-1.8-1.806v-3.436a1.805 1.805 0 011.8-1.806h4.816z" fill="#000"/></svg>