<svg width="50" height="46" fill="none" xmlns="http://www.w3.org/2000/svg"><path d="M0 5a5 5 0 015-5h30c8.284 0 15 6.716 15 15v16c0 8.284-6.716 15-15 15H15C6.716 46 0 39.284 0 31V5z" fill="#4CAF50"/><g clip-path="url(#clip0)"><path fill-rule="evenodd" clip-rule="evenodd" d="M35.066 12.924A13.388 13.388 0 0025.556 9c-7.41 0-13.44 6.002-13.443 13.378a13.306 13.306 0 001.794 6.69L12 36l7.127-1.86a13.481 13.481 0 006.424 1.628h.006c7.409 0 13.44-6.002 13.443-13.38a13.265 13.265 0 00-3.934-9.464zm-9.51 20.584h-.004a11.2 11.2 0 01-5.687-1.55l-.408-.24-4.23 1.104 1.13-4.104-.266-.42a11.054 11.054 0 01-1.708-5.919c.002-6.131 5.015-11.12 11.178-11.12a11.13 11.13 0 017.9 3.262 11.028 11.028 0 013.27 7.867c-.003 6.132-5.016 11.12-11.175 11.12zm6.13-8.328c-.336-.168-1.988-.976-2.296-1.088-.308-.111-.532-.167-.755.168-.225.334-.868 1.087-1.064 1.31-.196.223-.392.252-.728.084-.336-.167-1.418-.52-2.701-1.66-.999-.886-1.673-1.98-1.869-2.315-.196-.335-.002-.498.147-.682.364-.45.728-.92.84-1.144.112-.223.056-.418-.028-.585-.084-.168-.756-1.813-1.035-2.483-.273-.651-.55-.563-.756-.574-.196-.01-.42-.011-.644-.011-.224 0-.588.083-.896.418-.308.335-1.175 1.144-1.175 2.789 0 1.645 1.203 3.235 1.371 3.458.168.223 2.369 3.6 5.738 5.048.802.345 1.427.55 1.915.704.805.255 1.537.219 2.116.133.646-.096 1.987-.81 2.267-1.59.28-.78.28-1.45.196-1.59-.084-.14-.308-.223-.643-.39z" fill="#fff"/></g><defs><clipPath id="clip0"><path fill="#fff" transform="translate(12 9)" d="M0 0h27v27H0z"/></clipPath></defs></svg>