<svg width="32" height="29" fill="none" xmlns="http://www.w3.org/2000/svg"><g clip-path="url(#clip0)"><path d="M3.25 14.36c-.363 0-.725-.14-1.002-.42a1.444 1.444 0 010-2.027l9.784-9.902c.554-.56 1.45-.56 2.003 0 .554.56.554 1.467 0 2.027L4.252 13.94c-.277.28-.64.42-1.002.42z" fill="#FFB927"/><path d="M14.938 7.191a1.05 1.05 0 01-.75-.315l-4.96-5.018a1.083 1.083 0 01-.23-1.172c.164-.401.552-.664.982-.664h4.958A1.07 1.07 0 0116 1.098v5.018c0 .434-.259.827-.655.994a1.06 1.06 0 01-.407.081z" fill="#FFB927"/><path d="M8.917 20.454v8.244h-8.5v-8.244c0-.99.793-1.792 1.77-1.792h4.96c.977 0 1.77.803 1.77 1.792zm11.333-5.735v13.98h-8.5v-13.98c0-.99.793-1.792 1.77-1.792h4.96c.977 0 1.77.803 1.77 1.792zm11.333-5.735v19.714h-8.5V8.984c0-.99.793-1.793 1.77-1.793h4.96c.977 0 1.77.803 1.77 1.793z" fill="#F76747"/></g><defs><clipPath id="clip0"><path fill="#fff" d="M0 0h32v29H0z"/></clipPath></defs></svg>